<svg width="100" height="100" viewBox="0 0 100 100" fill="none" xmlns="http://www.w3.org/2000/svg">
<path d="M57 41L61 29.5L57 28.5L67.5 20L72.5 10C72.5 10 82.1319 7.91706 83 12C83.723 15.4005 77.9103 15.5478 77.5 19C76.9421 23.6938 82.9566 24.2377 85 28.5C86.9176 32.5 85.8799 37.7172 85 45.5C83.721 56.8136 82.6339 63.5527 75 72C66.5681 81.3303 61 86 46.5 89.5C39.4667 91.1977 31.8271 89.5095 25.5 86C21.9964 84.0566 20.5 81.5 20.5 81.5L15 67.5L28 53L46 47.5L57 41Z" fill="white"/>
<path d="M59.0751 31.8369C58.3449 32.3092 57.5906 32.7432 56.8151 33.1369C56.5385 33.3047 56.2263 33.4054 55.9038 33.4308C55.5812 33.4562 55.2571 33.4056 54.9576 33.283C54.6581 33.1605 54.3915 32.9695 54.1792 32.7253C53.9669 32.4811 53.8148 32.1905 53.7351 31.8769C53.2709 30.7717 53.1921 29.5424 53.5114 28.3869C53.8306 27.2315 54.5294 26.217 55.4951 25.5069C57.4951 23.8769 59.2051 21.9869 61.2251 20.4369C62.6033 19.285 64.1882 18.406 65.8951 17.8469C68.8951 17.0269 69.8951 14.8469 70.4651 12.2669C71.2351 8.9569 71.1751 8.8869 74.5951 9.0469C76.2122 9.1078 77.8213 9.30517 79.4051 9.6369C80.7651 9.9469 81.0451 10.7069 80.3051 11.8969C78.9251 14.0669 77.4551 16.1669 76.0751 18.3069C75.8551 18.6469 76.3051 19.3069 76.8751 19.9769C78.2051 21.5469 78.5251 22.2169 79.9351 23.6869C81.3361 25.0643 82.4293 26.7229 83.1429 28.5534C83.8565 30.3839 84.1742 32.3447 84.0751 34.3069C83.9351 37.7169 84.2851 41.1369 84.1851 44.5469C84.2035 46.5858 83.8824 48.6134 83.2351 50.5469C81.4705 55.4432 79.3757 60.2142 76.9651 64.8269C72.8751 72.2669 67.5751 78.7069 59.3351 81.9669C55.3351 83.5369 51.4651 85.2769 47.4251 86.6269C42.4983 88.141 37.2601 88.3341 32.2351 87.1869C28.9392 86.7133 25.7082 85.8644 22.6051 84.6569C17.1451 82.2269 14.7451 77.8269 14.1251 72.1969C13.854 70.111 14.0246 67.9914 14.6259 65.9757C15.2271 63.9601 16.2456 62.0934 17.6151 60.4969C20.4378 57.0636 23.6721 53.9905 27.2451 51.3469C31.436 48.3491 36.3455 46.5136 41.4751 46.0269C46.8043 45.6065 51.8016 43.273 55.5451 39.4569C57.5894 37.4167 58.8407 34.7155 59.0751 31.8369V31.8369ZM65.9651 29.1869C62.9651 29.6869 62.9651 29.6969 62.5451 32.0769C62.3796 33.3365 62.1121 34.5806 61.7451 35.7969C60.2951 40.2469 57.1251 43.2769 53.3551 45.7969C50.0651 48.0169 46.3551 48.8669 42.5151 49.4269C32.9751 50.8269 25.8851 56.0769 20.1751 63.5369C16.6751 68.1069 17.9251 73.9669 19.9551 77.6269C21.3151 80.0369 23.7551 81.3169 26.3351 82.0569C28.7051 82.7469 31.1551 83.1869 33.5851 83.6469C38.4651 84.6928 43.5438 84.3002 48.2051 82.5169C50.5851 81.5769 52.9551 80.6069 55.3551 79.7169C63.6751 76.6469 69.2951 70.5969 73.3551 63.0169C75.4351 59.1169 76.9151 54.8969 78.6451 50.8069C79.1251 49.6769 79.5151 48.5069 80.0051 47.2069C76.7951 47.5069 75.7551 46.5569 75.8251 43.7569C75.8251 42.9869 75.9351 42.2169 75.9351 41.4569C75.9043 40.2234 75.5885 39.0138 75.0126 37.9227C74.4366 36.8315 73.6161 35.8883 72.6151 35.1669C72.3885 35.5194 72.2071 35.8991 72.0751 36.2969C71.5351 39.1469 71.0751 42.0069 70.4851 44.8369C70.1358 46.5778 69.6647 48.292 69.0751 49.9669C68.9171 50.4234 68.592 50.8031 68.1652 51.0295C67.7384 51.2559 67.2417 51.3121 66.7751 51.1869C65.9981 50.9185 65.3585 50.3543 64.9951 49.6169C64.4958 48.5201 64.1848 47.347 64.0751 46.1469C63.6621 41.6286 63.9591 37.0734 64.9551 32.6469C65.2351 31.5869 65.5651 30.5369 65.9351 29.1869H65.9651ZM67.4851 41.6169C67.77 41.3458 67.9712 40.9988 68.0651 40.6169C69.1751 37.4969 70.2251 34.3569 71.3551 31.2469C71.4367 30.9414 71.5995 30.6637 71.8262 30.4433C72.053 30.2229 72.3352 30.068 72.6429 29.9952C72.9506 29.9224 73.2723 29.9343 73.5738 30.0297C73.8753 30.1251 74.1453 30.3003 74.3551 30.5369C74.6612 30.8316 74.9239 31.1683 75.1351 31.5369C76.7351 34.1269 78.3151 36.7269 79.9751 39.4269C80.8951 36.1169 81.2851 32.6869 79.8551 29.4269C78.2651 25.7869 75.2151 23.4269 71.9551 21.3169C70.4451 20.3169 69.4851 20.4769 67.3751 21.5669C66.8651 21.9469 66.1751 22.2069 65.6251 22.5669C63.7751 23.8669 61.8651 25.0469 60.5551 26.9669C60.9812 27.1238 61.4491 27.1238 61.8751 26.9669C63.4304 26.1974 65.14 25.7906 66.8751 25.7769C67.4205 25.7244 67.9697 25.7244 68.5151 25.7769C70.3251 25.9869 71.0051 26.1269 70.4251 27.7769C69.7851 29.6269 68.9351 31.4069 68.4251 33.2769C67.6143 35.9783 67.2859 38.8015 67.4551 41.6169H67.4851ZM75.5751 12.3569C74.9851 12.6669 74.1251 12.8169 73.8551 13.2969C73.1108 14.7578 72.4432 16.2565 71.8551 17.7869C73.4851 16.8869 74.6751 15.3469 75.5451 12.3569H75.5751Z" fill="black"/>
</svg>
