<svg width="100" height="100" viewBox="0 0 100 100" fill="none" xmlns="http://www.w3.org/2000/svg">
<path d="M37.5 19.5L48 14.5C48 14.5 59.6229 14.458 63.5 19.5C67.6659 24.9177 60.6827 30.7736 63.5 37C65.5522 41.5356 69.5544 42.1639 72 46.5C75.7065 53.0716 76.9444 58.0948 75.5 65.5C73.7655 74.3927 69.9458 80.7203 61.5 84C55.6754 86.2619 45.5 84 45.5 84L30.5 74L28 62.5L35.5 40L37.5 19.5Z" fill="white"/>
<path d="M67.1491 45.2604C65.7624 44.001 64.4999 42.6113 63.3791 41.1104C61.0891 37.8204 60.9791 34.1104 61.7591 30.2804C62.4002 27.5325 62.5793 24.6971 62.2891 21.8904C62.1812 20.8242 61.836 19.7958 61.2788 18.8804C60.7216 17.965 59.9666 17.186 59.0691 16.6004C56.0691 14.6004 52.8691 12.9704 49.0691 13.0004C48.5591 13.0004 48.0691 13.0004 47.5291 13.0004C39.9091 13.4704 34.1391 18.4004 34.7391 26.5404C34.8391 27.9004 34.9291 29.2604 35.0291 30.6304C35.0114 33.0561 34.7162 35.4718 34.1491 37.8304C34.0991 38.0304 34.0491 38.2104 33.9891 38.4004C33.4891 40.0104 30.9891 47.8904 30.9091 48.2104C30.0391 50.6204 29.0991 53.0104 28.2691 55.4304C26.6391 60.1604 26.8791 65.0404 27.3491 69.9004C27.5408 71.1681 27.9827 72.3851 28.6491 73.4804C31.9891 79.4804 37.2591 83.0304 43.6491 85.1004C46.8291 86.1004 50.0491 86.4804 53.1791 85.1704C57.3867 83.4624 61.2138 80.937 64.4391 77.7404C69.3291 72.8004 72.4991 67.0204 72.3491 59.7404C72.2891 54.2404 71.2891 49.2204 67.1491 45.2604ZM60.4491 75.6004C58.5869 77.0989 56.644 78.4944 54.6291 79.7804C53.2694 80.7602 51.6975 81.405 50.0414 81.6622C48.3853 81.9194 46.6919 81.7817 45.0991 81.2604C39.6634 79.7764 35.008 76.2561 32.0991 71.4304C31.0991 69.7504 31.1591 67.3504 30.7991 65.2604C30.7467 64.5948 30.7467 63.926 30.7991 63.2604C31.1391 56.1204 34.3991 49.9204 36.6391 43.2604C38.0191 39.1804 39.3091 35.3704 39.1291 31.1204C39.0391 29.1204 38.9991 27.1904 38.7991 25.2404C38.2591 20.0204 43.8791 14.9904 50.1991 16.4804C52.0791 16.9304 54.1991 17.3404 55.6491 18.6704C56.8591 19.7904 57.6491 20.4204 57.9191 21.8804C58.231 24.0775 58.177 26.311 57.7591 28.4904C57.4389 30.9232 57.3119 33.3775 57.3791 35.8304C57.4391 39.7104 59.3291 42.8304 61.8791 45.6204C62.0454 45.8167 62.2223 46.0036 62.4091 46.1804C67.5691 50.6704 68.5891 56.5404 67.9891 62.9504C67.4391 68.3604 64.2391 72.2204 60.4491 75.6004Z" fill="black"/>
<path d="M37.3792 59.8904C37.1379 56.689 37.9681 53.4982 39.7392 50.8204C41.7392 47.5204 45.9292 46.1804 50.3692 47.1104C56.1492 48.3404 59.2592 52.1104 60.4592 57.6504C61.2592 61.4004 60.9792 64.9904 58.5292 68.1004C57.3883 69.6614 55.8637 70.9013 54.103 71.7002C52.3423 72.499 50.4052 72.8298 48.4792 72.6604C43.7392 72.2104 39.8892 69.8304 38.3892 64.8904C37.9002 63.2582 37.5622 61.5845 37.3792 59.8904V59.8904ZM41.2092 59.0804C41.3332 60.6909 41.6695 62.278 42.2092 63.8004C43.9192 68.4204 48.4992 70.0204 52.8492 67.6704C57.9892 64.8904 58.3692 55.6704 53.4892 52.3604C53.2903 52.1973 53.0632 52.0719 52.8192 51.9904C51.1258 51.1444 49.2709 50.6705 47.3792 50.6004C46.8856 50.5493 46.3868 50.604 45.916 50.761C45.4453 50.9179 45.0134 51.1734 44.6492 51.5104C42.8292 53.6504 40.9292 56.0304 41.1892 59.0804H41.2092Z" fill="black"/>
</svg>
