<svg width="100" height="100" viewBox="0 0 100 100" fill="none" xmlns="http://www.w3.org/2000/svg">
<path d="M28.1171 56.8991C28.1171 56.8991 25.4968 85.6843 36.3869 83.9136C41.4024 83.0981 42.106 74.406 46.8619 76.1952C51.4572 77.9239 45.41 87.1206 50.1698 88.3241C53.0089 89.042 54.7124 87.418 57.3369 86.1189C67.0884 81.2919 59.4745 58.6183 70.0172 61.3096C74.6115 62.4824 74.8613 67.622 79.3896 69.028C85.5238 70.9327 90.6101 69.4729 95.3778 65.1688C101.116 59.9891 99.5159 53.5979 99.7884 45.8727C100.049 38.4783 100.678 33.566 97.0318 27.1279C93.8769 21.5579 91.0594 17.8548 84.9028 16.1016C78.5677 14.2976 74.918 20.0609 68.3633 19.4095C65.5049 19.1254 63.6991 19.165 61.1962 17.7556C58.8083 16.411 56.2343 12.7937 56.2343 12.7937L52.3751 13.8963L47.9646 17.7556L45.208 13.8963H38.5922L34.7329 17.7556L33.079 23.2687L28.1171 27.1279H24.2579L7.16709 29.8845L5.51314 39.2569L1.1026 45.8727L7.16709 54.1425L19.8474 61.3096L28.1171 56.8991Z" fill="white"/>
<path d="M94.6736 48.5871C95.3386 50.3346 95.8082 52.1503 96.074 54.0011C96.2724 58.2462 93.7143 61.1902 90.7152 63.7814C89.6829 64.8076 88.378 65.5161 86.9552 65.823C85.5324 66.1298 84.0514 66.0221 82.688 65.5126C81.7613 65.2657 80.799 65.1799 79.8432 65.259C75.1129 65.259 72.7312 63.0537 72.3232 58.3454C72.3232 57.8052 72.1248 57.2428 71.9263 56.1402C69.8974 58.6762 68.1222 60.8043 66.4131 63.0096C62.6641 68.1349 59.6091 73.7333 57.3274 79.6594C56.803 81.1752 56.3576 82.7173 55.9932 84.2794C55.9093 84.7527 55.7724 85.215 55.5852 85.6577C55.3044 86.0985 54.8938 86.4412 54.4099 86.6387C53.926 86.8362 53.3928 86.8787 52.8838 86.7603C51.7812 86.3303 51.8914 85.4262 52.0789 84.5551C52.92 80.0507 54.4054 75.691 56.4894 71.6101C60.7495 64.0527 65.9351 57.0559 71.9263 50.7814C72.1909 50.4837 72.4225 50.1749 72.8194 49.6787C71.0503 48.9432 69.1654 48.5251 67.2511 48.4438C66.6206 48.5002 66.0342 48.7914 65.6082 49.2597C61.5123 52.889 57.7382 56.8659 54.3282 61.1461C53.3469 62.4583 52.3325 63.6712 50.4249 63.2081C49.3884 56.8018 51.1968 50.7373 52.2994 44.4633C49.5208 43.6363 46.9185 43.9009 44.0517 43.934C43.9635 45.2021 43.8642 46.3047 43.7981 47.3963C43.5335 51.9722 43.2357 56.5371 43.0483 61.1241C43.0073 61.9238 42.788 62.7042 42.4065 63.4082C42.0249 64.1122 41.4907 64.722 40.843 65.1928C39.7404 66.108 39.1119 66.0859 38.2408 64.9282C36.7412 62.9545 34.9991 61.1241 34.6242 58.5108C34.5263 58.1318 34.3934 57.7627 34.2272 57.4082C33.1246 54.3539 31.9117 53.7034 28.273 54.4421C28.9015 56.1733 29.5079 57.8823 30.1475 59.5694C32.6174 66.1852 35.6606 72.5915 37.083 79.5601C37.3367 80.8171 37.5131 82.0962 37.6454 83.3642C37.8218 85.0623 37.0279 86.0988 35.0432 86.5729C34.3485 83.5847 33.7751 80.5856 32.9482 77.6526C32.1212 74.7196 31.0627 71.6873 30.0262 68.7323C28.9897 65.7772 27.8209 62.8993 26.7844 59.9884C25.5936 60.8184 24.3273 61.5346 23.0024 62.1275C20.3264 62.8684 17.4822 62.7207 14.8973 61.7066C12.3124 60.6926 10.1265 58.8669 8.66816 56.5041C8.31024 55.8946 7.7811 55.4038 7.14652 55.0927C4.27968 53.8688 2.55957 51.5422 0.993826 49.0944C-0.571914 46.6465 -0.329335 44.2648 2.01928 41.6185C2.70986 40.9219 3.23339 40.0777 3.55044 39.1495C3.86749 38.2213 3.96979 37.2332 3.84965 36.2597C3.77708 34.7655 4.02707 33.2733 4.58265 31.8843C5.13822 30.4954 5.98633 29.2424 7.06934 28.2105C7.77585 27.3761 8.70184 26.7563 9.74246 26.4211C10.7831 26.0859 11.8968 26.0488 12.9574 26.3139C13.594 26.4095 14.2238 26.5458 14.8429 26.7219C15.3908 26.9556 15.9947 27.0259 16.5816 26.9241C17.1685 26.8224 17.7135 26.553 18.1508 26.1485C19.6394 24.9356 21.4587 25.0459 23.2229 25.3877C24.5461 25.6634 25.8362 26.1265 26.8506 26.4132L32.7607 20.9772C32.7607 20.7567 32.7607 20.2053 32.7607 19.654C32.6615 16.0374 34.2824 13.6447 37.7446 12.5972C39.1874 12.0622 40.7422 11.902 42.2637 12.1315C43.7852 12.361 45.2236 12.9727 46.4444 13.9093L47.547 14.7694C48.64 13.8427 49.8219 13.0265 51.0755 12.3325C55.3096 10.4911 60.8558 12.7736 62.8185 17.14C63.226 18.0728 63.9267 18.847 64.8143 19.3453C66.0539 20.1847 67.2363 21.1056 68.3538 22.1019C69.9085 21.2969 71.408 20.1061 73.0951 19.7312C76.2946 19.1881 79.5312 18.8931 82.7762 18.8491C86.3818 18.6065 88.973 20.911 90.6711 23.9212C91.2272 25.1556 91.4769 26.506 91.3988 27.8576C91.2692 29.0761 91.0105 30.2774 90.627 31.4412C92.2699 32.5989 94.3428 33.6465 95.2911 35.8517C96.2394 38.057 97.0222 40.0969 96.5702 42.3793C96.1181 44.6618 95.2801 46.5914 94.6736 48.5871ZM82.3572 46.4811C83.0953 46.0956 83.8621 45.7675 84.6507 45.4998C86.2774 44.9985 88.0232 45.0411 89.6236 45.6211C90.9247 46.1393 91.6193 45.5549 92.1376 44.5184C92.7064 43.4566 93.0517 42.2895 93.1522 41.0891C93.2527 39.8887 93.1063 38.6804 92.722 37.5387C92.4914 36.5557 91.985 35.659 91.2623 34.9539C90.5396 34.2487 89.6306 33.7646 88.6422 33.5582C86.5693 33.1172 85.3343 34.297 84.2317 35.7635C83.9818 36.1771 83.624 36.5148 83.1965 36.7401C82.7691 36.9655 82.2883 37.0701 81.8059 37.0426C81.7397 34.9145 82.3462 33.1613 84.1545 32.2682C86.1282 31.2978 86.7347 29.5005 87.4624 27.7474C87.7979 26.8764 87.8484 25.9214 87.6067 25.0198C87.3649 24.1183 86.8434 23.3167 86.1172 22.7304C84.7279 21.3631 83.2503 20.7567 81.3979 21.5064C80.6261 23.0171 79.9314 24.4836 79.1155 25.917C78.9344 26.0312 78.728 26.099 78.5146 26.1144C78.3011 26.1298 78.0871 26.0923 77.8915 26.0052C77.4209 25.475 77.0676 24.8512 76.8551 24.1748C76.6779 23.3834 76.56 22.58 76.5022 21.7711C75.3054 21.7629 74.1287 22.0796 73.0977 22.6874C72.0666 23.2952 71.2197 24.1712 70.6472 25.2223C69.5446 27.2953 68.1112 29.2469 66.6998 31.4632C67.5047 33.2054 66.4462 35.7304 68.6625 37.5277C66.1816 38.8619 66.2698 40.6372 67.5599 42.6109C67.656 42.8346 67.712 43.0734 67.7252 43.3166C67.8039 44.0294 68.131 44.6919 68.6491 45.1878C69.1672 45.6838 69.8434 45.9816 70.559 46.029C72.4615 46.3071 74.3333 46.7649 76.1494 47.3963C77.9577 48.0248 78.0569 48.4989 77.4394 50.2742C77.1443 50.9335 76.9153 51.6205 76.7558 52.3251C76.3436 54.5108 76.0711 56.7205 75.9399 58.9409C75.8771 59.6421 76.0639 60.3429 76.4673 60.9199C76.8708 61.4968 77.465 61.9128 78.1451 62.0944C78.92 62.3759 79.7641 62.4048 80.5564 62.177C81.3488 61.9492 82.0486 61.4764 82.5557 60.8264C82.8203 60.4735 83.1511 60.1538 83.6583 59.6245C84.4412 60.6389 85.1028 61.499 85.8636 62.5465C88.3996 61.0249 90.6821 59.3489 92.0604 56.6694C92.905 55.1859 93.1794 53.4452 92.8322 51.7738C92.5786 50.6711 92.2809 49.8331 91.0239 49.4803C90.358 49.2717 89.79 48.8291 89.4251 48.2343C89.253 47.8149 88.9347 47.4721 88.5293 47.2694C88.1238 47.0666 87.6586 47.0177 87.2198 47.1317C86.4259 47.253 85.6431 47.4514 84.8712 47.6499C84.3825 47.8217 83.846 47.7956 83.3763 47.5772C82.9066 47.3588 82.5408 46.9655 82.3572 46.4811V46.4811ZM42.2765 24.8474C41.305 25.3548 40.2322 25.638 39.1369 25.6762C38.0416 25.7144 36.9517 25.5065 35.9473 25.068C35.3078 24.8474 34.4036 24.5607 33.9405 24.8364C32.494 25.6087 31.3945 26.9013 30.8642 28.453C30.2247 30.515 31.0957 31.9815 33.2679 32.2571C34.5461 32.3233 35.8269 32.3233 37.1051 32.2571C38.2077 32.2571 39.2222 32.3564 40.843 32.4336C40.4073 32.9306 39.9355 33.395 39.4317 33.8229C38.759 34.2529 37.9982 34.5616 37.3366 35.0027C36.7756 35.4588 36.3489 36.0587 36.1023 36.7385C35.8556 37.4182 35.7983 38.1521 35.9363 38.8619C36.3222 40.3174 37.5131 40.2181 38.6378 40.3174C41.9457 40.6371 45.1764 41.012 48.4512 41.2987C49.8015 41.409 51.1586 41.409 52.5089 41.2987C53.7328 41.1885 55.2545 42.1037 56.1035 40.4056C56.1035 40.4056 56.4012 40.4056 56.5556 40.4056C58.1875 40.8025 59.5437 39.9425 60.8889 39.303C63.6234 37.9908 64.3843 35.3225 62.9178 32.3012C61.3079 32.3012 59.6099 32.3564 57.9559 32.3012C57.5149 32.3012 57.1069 31.772 56.6769 31.4853C57.0287 31.1418 57.4348 30.8587 57.8787 30.6473C59.6099 30.1732 61.6167 30.3385 62.609 28.3097C62.7193 28.0892 63.3257 28.0561 63.7117 28.012C64.1202 28.0131 64.5223 27.9111 64.8809 27.7154C65.2394 27.5197 65.5427 27.2366 65.7627 26.8924C65.9826 26.5481 66.1121 26.1539 66.139 25.7463C66.166 25.3387 66.0896 24.9309 65.9169 24.5607C65.0017 21.9585 62.8185 21.2528 60.1722 22.4878C59.2083 22.8503 58.1913 23.0515 57.162 23.0832C56.8864 23.0832 56.5776 22.6863 56.1366 22.3555C57.6141 20.9882 57.4708 18.6506 59.6319 18.0662C58.0441 14.2842 54.6921 13.4021 51.9135 16.0264C50.9336 17.0744 50.1226 18.2685 49.5097 19.5658C48.9805 20.5692 48.4071 21.0874 47.3045 20.889C46.2018 20.6905 45.849 19.9297 45.6946 18.8381C45.5934 17.8128 45.2412 16.8281 44.6692 15.9712C43.1586 13.9865 40.2586 14.1188 38.0534 16.1035C35.8481 18.0883 35.6386 21.2308 37.4249 22.7745C38.3101 23.2949 39.2939 23.6253 40.3138 23.7448C41.0084 23.8881 41.9898 23.5243 42.2765 24.8474ZM17.2136 36.6015C16.4307 35.7635 17.0923 35.135 17.5885 34.5286C17.9466 34.1314 18.1997 33.651 18.3249 33.131C18.4501 32.6111 18.4433 32.0681 18.3052 31.5514C17.2025 30.9671 16.2874 30.4488 15.317 29.9306C14.8796 29.7375 14.4145 29.6147 13.9388 29.5667C9.58335 29.0264 6.22031 33.5693 7.7199 37.9136C9.50616 38.1011 11.4468 37.4395 13.6741 38.6524C12.5715 39.0494 11.9981 39.336 11.3476 39.5125C9.96927 39.8874 8.53584 40.0417 7.87426 41.7177C7.71989 42.1257 6.77163 42.3683 6.24237 42.4455C5.64659 42.4757 5.06875 42.6594 4.56486 42.9788C4.06097 43.2981 3.64813 43.7422 3.36637 44.268C3.08461 44.7938 2.94348 45.3835 2.95667 45.9799C2.96987 46.5763 3.13693 47.1591 3.44167 47.672C4.49679 49.7273 6.29441 51.3041 8.46969 52.0825C12.0202 48.7746 14.0821 48.102 17.0261 49.2708C16.1109 49.8 15.3722 50.208 14.6555 50.6601C13.9388 51.1122 13.0677 51.7627 11.9981 52.4243C13.7403 53.8798 11.5571 54.6296 11.546 55.7322C12.6338 57.0896 14.0476 58.1494 15.6557 58.8127C17.2637 59.4759 19.0136 59.7211 20.742 59.5253C21.389 59.5282 22.0157 59.2998 22.509 58.8812C23.0024 58.4627 23.3299 57.8816 23.4324 57.2428C23.6449 56.462 23.9177 55.6989 24.2484 54.9604C23.9715 54.5142 23.7176 54.0541 23.4876 53.5821C22.9693 52.3692 23.256 51.6194 24.491 51.476C26.8582 51.1331 29.2445 50.9379 31.636 50.8916C33.7862 50.8916 35.3188 50.0206 35.7819 47.9476C35.8812 47.5286 35.8591 46.7788 35.6055 46.6245C33.8192 45.5218 34.6903 44.1546 35.1314 43.1291C34.1059 41.839 32.9261 40.8577 32.4299 39.5896C32.0948 38.115 31.965 36.6011 32.044 35.0909C30.0041 34.286 27.9973 33.3818 27.1152 31.0001C26.2331 28.6184 23.1899 27.9128 20.8412 29.3352C21.8263 33.7457 20.617 36.1678 17.2136 36.6015ZM63.7778 41.6185C62.5657 42.0813 61.3197 42.45 60.0509 42.7211C58.8251 42.8144 57.5939 42.8144 56.3681 42.7211C54.5047 48.8738 53.799 53.6593 54.4495 55.4014L65.2884 44.9705C64.8363 44.0222 64.3402 42.8755 63.7778 41.6185ZM39.0347 59.5914H39.5088C39.6853 57.7941 39.9278 55.9968 40.0271 54.1995C40.1263 52.4023 40.1925 50.3514 40.1153 48.4328C40.0381 46.5142 40.9312 44.8272 39.7514 43.1181C38.1085 44.1546 37.7998 44.772 38.4834 46.426C39.167 48.0799 39.2883 49.7339 38.1085 50.9358C36.245 52.9095 36.9066 54.806 37.7887 56.8128C38.1967 57.7169 38.5826 58.6542 39.0347 59.5914Z" fill="black"/>
</svg>
