<svg width="91" height="70" viewBox="0 0 91 70" fill="none" xmlns="http://www.w3.org/2000/svg">
<path d="M25.5 41C25.5 41 23.1236 67.1059 33 65.5C37.5486 64.7604 38.1868 56.8774 42.5 58.5C46.6675 60.0678 41.1832 68.4085 45.5 69.5C48.0748 70.1511 49.6198 68.6782 52 67.5C60.8438 63.1224 53.9386 42.5592 63.5 45C67.6666 46.0636 67.8932 50.7248 72 52C77.5632 53.7274 82.176 52.4034 86.5 48.5C91.7037 43.8024 90.2529 38.0061 90.5 31C90.7365 24.2939 91.3071 19.8388 88 14C85.1388 8.94845 82.5836 5.59003 77 4C71.2545 2.36388 67.9446 7.59079 62 7C59.4076 6.74236 57.77 6.77824 55.5 5.5C53.3344 4.28056 51 1 51 1L47.5 2L43.5 5.5L41 2H35L31.5 5.5L30 10.5L25.5 14H22L6.5 16.5L5 25L1 31L6.5 38.5L18 45L25.5 41Z" fill="white"/>
<path d="M85.8613 33.4618C86.4644 35.0466 86.8903 36.6933 87.1313 38.3718C87.3113 42.2218 84.9913 44.8918 82.2713 47.2418C81.3352 48.1724 80.1517 48.815 78.8613 49.0933C77.5709 49.3716 76.2278 49.2739 74.9913 48.8118C74.1508 48.5878 73.2781 48.5101 72.4113 48.5818C68.1213 48.5818 65.9613 46.5818 65.5913 42.3118C65.5913 41.8218 65.4113 41.3118 65.2313 40.3118C63.3913 42.6118 61.7813 44.5418 60.2313 46.5418C56.8313 51.19 54.0606 56.2674 51.9913 61.6418C51.5157 63.0166 51.1118 64.4151 50.7813 65.8318C50.7052 66.261 50.5811 66.6803 50.4113 67.0818C50.1566 67.4815 49.7842 67.7924 49.3454 67.9715C48.9066 68.1506 48.423 68.1891 47.9613 68.0818C46.9613 67.6918 47.0613 66.8718 47.2313 66.0818C47.9941 61.9967 49.3413 58.0428 51.2313 54.3418C55.0949 47.4878 59.7978 41.1422 65.2313 35.4518C65.4713 35.1818 65.6813 34.9018 66.0413 34.4518C64.4368 33.7847 62.7274 33.4056 60.9913 33.3318C60.4194 33.3829 59.8877 33.647 59.5013 34.0718C55.7867 37.3632 52.3639 40.97 49.2713 44.8518C48.3813 46.0418 47.4613 47.1418 45.7313 46.7218C44.7913 40.9118 46.4313 35.4118 47.4313 29.7218C44.9113 28.9718 42.5513 29.2118 39.9513 29.2418C39.8713 30.3918 39.7813 31.3918 39.7213 32.3818C39.4813 36.5318 39.2113 40.6718 39.0413 44.8318C39.0042 45.557 38.8053 46.2648 38.4592 46.9033C38.1132 47.5418 37.6287 48.0948 37.0413 48.5218C36.0413 49.3518 35.4713 49.3318 34.6813 48.2818C33.3213 46.4918 31.7413 44.8318 31.4013 42.4618C31.3126 42.118 31.192 41.7832 31.0413 41.4618C30.0413 38.6918 28.9413 38.1018 25.6413 38.7718C26.2113 40.3418 26.7613 41.8918 27.3413 43.4218C29.5813 49.4218 32.3413 55.2318 33.6313 61.5518C33.8613 62.6918 34.0213 63.8518 34.1413 65.0018C34.3013 66.5418 33.5813 67.4818 31.7813 67.9118C31.1513 65.2018 30.6313 62.4818 29.8813 59.8218C29.1313 57.1618 28.1713 54.4118 27.2313 51.7318C26.2913 49.0518 25.2313 46.4418 24.2913 43.8018C23.2113 44.5545 22.0629 45.2041 20.8613 45.7418C18.4344 46.4137 15.8549 46.2798 13.5107 45.3601C11.1664 44.4404 9.18395 42.7847 7.86132 40.6418C7.53671 40.0891 7.05683 39.644 6.48132 39.3618C3.88132 38.2518 2.32132 36.1418 0.90132 33.9218C-0.51868 31.7018 -0.29868 29.5418 1.83132 27.1418C2.45762 26.51 2.93242 25.7444 3.21996 24.9026C3.5075 24.0608 3.60028 23.1647 3.49132 22.2818C3.4255 20.9267 3.65223 19.5733 4.15609 18.3137C4.65995 17.054 5.42912 15.9177 6.41132 14.9818C7.05207 14.2251 7.89186 13.663 8.83563 13.359C9.77939 13.055 10.7894 13.0213 11.7513 13.2618C12.3286 13.3484 12.8998 13.472 13.4613 13.6318C13.9582 13.8438 14.5059 13.9075 15.0382 13.8152C15.5705 13.7229 16.0647 13.4786 16.4613 13.1118C17.8113 12.0118 19.4613 12.1118 21.0613 12.4218C22.2613 12.6718 23.4313 13.0918 24.3513 13.3518L29.7113 8.42178C29.7113 8.22178 29.7113 7.72178 29.7113 7.22178C29.6213 3.94178 31.0913 1.77178 34.2313 0.821782C35.5398 0.336653 36.9499 0.19135 38.3298 0.399468C39.7096 0.607587 41.0142 1.16232 42.1213 2.01178L43.1213 2.79178C44.1125 1.95143 45.1844 1.21116 46.3213 0.581781C50.1613 -1.08822 55.1913 0.981781 56.9713 4.94178C57.3409 5.78771 57.9764 6.48992 58.7813 6.94178C59.9055 7.70305 60.9779 8.53822 61.9913 9.44178C63.4013 8.71178 64.7613 7.63178 66.2913 7.29178C69.193 6.79919 72.1284 6.53173 75.0713 6.49178C78.3413 6.27178 80.6913 8.36178 82.2313 11.0918C82.7357 12.2112 82.9622 13.436 82.8913 14.6618C82.7738 15.7669 82.5392 16.8563 82.1913 17.9118C83.6813 18.9618 85.5613 19.9118 86.4213 21.9118C87.2813 23.9118 87.9913 25.7618 87.5813 27.8318C87.1713 29.9018 86.4113 31.6518 85.8613 33.4618ZM74.6913 31.5518C75.3608 31.2021 76.0561 30.9046 76.7713 30.6618C78.2466 30.2072 79.8299 30.2458 81.2813 30.7718C82.4613 31.2418 83.0913 30.7118 83.5613 29.7718C84.0772 28.8088 84.3904 27.7503 84.4815 26.6616C84.5727 25.573 84.4399 24.4772 84.0913 23.4418C83.8822 22.5503 83.4229 21.737 82.7675 21.0975C82.1121 20.458 81.2877 20.0189 80.3913 19.8318C78.5113 19.4318 77.3913 20.5018 76.3913 21.8318C76.1647 22.2069 75.8402 22.5131 75.4525 22.7175C75.0649 22.9219 74.6288 23.0167 74.1913 22.9918C74.1313 21.0618 74.6813 19.4718 76.3213 18.6618C78.1113 17.7818 78.6613 16.1518 79.3213 14.5618C79.6256 13.7719 79.6714 12.9058 79.4521 12.0881C79.2329 11.2705 78.76 10.5435 78.1013 10.0118C76.8413 8.77178 75.5013 8.22178 73.8213 8.90178C73.1213 10.2718 72.4913 11.6018 71.7513 12.9018C71.5872 13.0054 71.4 13.0669 71.2063 13.0809C71.0127 13.0948 70.8186 13.0608 70.6413 12.9818C70.2145 12.5009 69.8941 11.9352 69.7013 11.3218C69.5407 10.6041 69.4337 9.87539 69.3813 9.14178C68.2959 9.13439 67.2288 9.42159 66.2937 9.97279C65.3586 10.524 64.5905 11.3185 64.0713 12.2718C63.0713 14.1518 61.7713 15.9218 60.4913 17.9318C61.2213 19.5118 60.2613 21.8018 62.2713 23.4318C60.0213 24.6418 60.1013 26.2518 61.2713 28.0418C61.3585 28.2447 61.4093 28.4613 61.4213 28.6818C61.4927 29.3283 61.7893 29.9291 62.2592 30.3789C62.7291 30.8287 63.3423 31.0987 63.9913 31.1418C65.7167 31.394 67.4143 31.8092 69.0613 32.3818C70.7013 32.9518 70.7913 33.3818 70.2313 34.9918C69.9637 35.5898 69.756 36.2128 69.6113 36.8518C69.2375 38.834 68.9903 40.8381 68.8713 42.8518C68.8144 43.4877 68.9838 44.1233 69.3497 44.6466C69.7156 45.1698 70.2545 45.547 70.8713 45.7118C71.5741 45.9671 72.3396 45.9933 73.0582 45.7867C73.7767 45.5801 74.4115 45.1513 74.8713 44.5618C75.1113 44.2418 75.4113 43.9518 75.8713 43.4718C76.5813 44.3918 77.1813 45.1718 77.8713 46.1218C80.1713 44.7418 82.2413 43.2218 83.4913 40.7918C84.2573 39.4463 84.5062 37.8676 84.1913 36.3518C83.9613 35.3518 83.6913 34.5918 82.5513 34.2718C81.9474 34.0826 81.4323 33.6812 81.1013 33.1418C80.9452 32.7614 80.6566 32.4505 80.2889 32.2667C79.9211 32.0828 79.4992 32.0384 79.1013 32.1418C78.3813 32.2518 77.6713 32.4318 76.9713 32.6118C76.5281 32.7676 76.0416 32.7439 75.6156 32.5459C75.1896 32.3478 74.8579 31.9911 74.6913 31.5518V31.5518ZM38.3413 11.9318C37.4603 12.392 36.4874 12.6488 35.494 12.6834C34.5007 12.718 33.5122 12.5295 32.6013 12.1318C32.0213 11.9318 31.2013 11.6718 30.7813 11.9218C29.4694 12.6222 28.4722 13.7945 27.9913 15.2018C27.4113 17.0718 28.2013 18.4018 30.1713 18.6518C31.3305 18.7117 32.4921 18.7117 33.6513 18.6518C34.6513 18.6518 35.5713 18.7418 37.0413 18.8118C36.6461 19.2626 36.2183 19.6837 35.7613 20.0718C35.1513 20.4618 34.4613 20.7418 33.8613 21.1418C33.3525 21.5554 32.9655 22.0995 32.7419 22.716C32.5182 23.3324 32.4661 23.9981 32.5913 24.6418C32.9413 25.9618 34.0213 25.8718 35.0413 25.9618C38.0413 26.2518 40.9713 26.5918 43.9413 26.8518C45.166 26.9518 46.3967 26.9518 47.6213 26.8518C48.7313 26.7518 50.1113 27.5818 50.8813 26.0418C50.8813 26.0418 51.1513 26.0418 51.2913 26.0418C52.7713 26.4018 54.0013 25.6218 55.2213 25.0418C57.7013 23.8518 58.3913 21.4318 57.0613 18.6918C55.6013 18.6918 54.0613 18.7418 52.5613 18.6918C52.1613 18.6918 51.7913 18.2118 51.4013 17.9518C51.7205 17.6403 52.0887 17.3835 52.4913 17.1918C54.0613 16.7618 55.8813 16.9118 56.7813 15.0718C56.8813 14.8718 57.4313 14.8418 57.7813 14.8018C58.1518 14.8028 58.5165 14.7103 58.8417 14.5328C59.1669 14.3553 59.4419 14.0985 59.6414 13.7864C59.8409 13.4742 59.9583 13.1167 59.9828 12.747C60.0072 12.3774 59.9379 12.0075 59.7813 11.6718C58.9513 9.31178 56.9713 8.67178 54.5713 9.79178C53.6972 10.1205 52.7748 10.303 51.8413 10.3318C51.5913 10.3318 51.3113 9.97178 50.9113 9.67178C52.2513 8.43178 52.1213 6.31178 54.0813 5.78178C52.6413 2.35178 49.6013 1.55178 47.0813 3.93178C46.1926 4.8823 45.4572 5.96524 44.9013 7.14178C44.4213 8.05178 43.9013 8.52178 42.9013 8.34178C41.9013 8.16178 41.5813 7.47178 41.4413 6.48178C41.3495 5.5519 41.0301 4.65894 40.5113 3.88178C39.1413 2.08178 36.5113 2.20178 34.5113 4.00178C32.5113 5.80178 32.3213 8.65178 33.9413 10.0518C34.7441 10.5237 35.6364 10.8234 36.5613 10.9318C37.1913 11.0618 38.0813 10.7318 38.3413 11.9318ZM15.6113 22.5918C14.9013 21.8318 15.5013 21.2618 15.9513 20.7118C16.2761 20.3516 16.5057 19.9159 16.6192 19.4443C16.7327 18.9728 16.7266 18.4803 16.6013 18.0118C15.6013 17.4818 14.7713 17.0118 13.8913 16.5418C13.4946 16.3667 13.0728 16.2553 12.6413 16.2118C8.69132 15.7218 5.64132 19.8418 7.00132 23.7818C8.62132 23.9518 10.3813 23.3518 12.4013 24.4518C11.4013 24.8118 10.8813 25.0718 10.2913 25.2318C9.04132 25.5718 7.74132 25.7118 7.14132 27.2318C7.00132 27.6018 6.14132 27.8218 5.66132 27.8918C5.121 27.9192 4.59694 28.0858 4.13996 28.3754C3.68297 28.665 3.30856 29.0678 3.05302 29.5446C2.79749 30.0215 2.6695 30.5563 2.68146 31.0972C2.69343 31.6381 2.84495 32.1667 3.12132 32.6318C4.07822 34.4958 5.70852 35.9259 7.68132 36.6318C10.9013 33.6318 12.7713 33.0218 15.4413 34.0818C14.6113 34.5618 13.9413 34.9318 13.2913 35.3418C12.6413 35.7518 11.8513 36.3418 10.8813 36.9418C12.4613 38.2618 10.4813 38.9418 10.4713 39.9418C11.4578 41.1728 12.7401 42.134 14.1984 42.7355C15.6568 43.337 17.2438 43.5594 18.8113 43.3818C19.3981 43.3844 19.9664 43.1773 20.4139 42.7977C20.8613 42.4181 21.1583 41.8911 21.2513 41.3118C21.444 40.6037 21.6915 39.9116 21.9913 39.2418C21.7402 38.8371 21.5099 38.4199 21.3013 37.9918C20.8313 36.8918 21.0913 36.2118 22.2113 36.0818C24.3582 35.7708 26.5224 35.5938 28.6913 35.5518C30.6413 35.5518 32.0313 34.7618 32.4513 32.8818C32.5413 32.5018 32.5213 31.8218 32.2913 31.6818C30.6713 30.6818 31.4613 29.4418 31.8613 28.5118C30.9313 27.3418 29.8613 26.4518 29.4113 25.3018C29.1074 23.9644 28.9897 22.5914 29.0613 21.2218C27.2113 20.4918 25.3913 19.6718 24.5913 17.5118C23.7913 15.3518 21.0313 14.7118 18.9013 16.0018C19.7947 20.0018 18.698 22.1985 15.6113 22.5918ZM57.8413 27.1418C56.742 27.5615 55.612 27.8959 54.4613 28.1418C53.3496 28.2264 52.233 28.2264 51.1213 28.1418C49.4313 33.7218 48.7913 38.0618 49.3813 39.6418L59.2113 30.1818C58.8013 29.3218 58.3513 28.2818 57.8413 27.1418ZM35.4013 43.4418H35.8313C35.9913 41.8118 36.2113 40.1818 36.3013 38.5518C36.3913 36.9218 36.4513 35.0618 36.3813 33.3218C36.3113 31.5818 37.1213 30.0518 36.0513 28.5018C34.5613 29.4418 34.2813 30.0018 34.9013 31.5018C35.5213 33.0018 35.6313 34.5018 34.5613 35.5918C32.8713 37.3818 33.4713 39.1018 34.2713 40.9218C34.6413 41.7418 34.9913 42.5918 35.4013 43.4418Z" fill="black"/>
</svg>
