<svg width="76" height="71" viewBox="0 0 76 71" fill="none" xmlns="http://www.w3.org/2000/svg">
<path d="M8.74843 47.0223C8.74843 47.0223 2.30218 70.0445 5.06487 70.505C7.82756 70.9654 13.4776 68.5975 19.3387 66.8214C34.5333 62.217 50.0554 56.2312 54.7929 47.0223C56.9521 42.8252 55.3132 39.0142 58.4765 35.5112C60.958 32.7632 63.0809 32.7485 66.7645 30.9067C70.4481 29.0649 75.445 28.4643 75.9734 24C76.3425 20.8815 72.7503 16.6329 72.7503 16.6329L65.8436 15.712L69.5272 10.1867L66.7645 2.81958L59.3974 6.04269L54.7929 2.81958L46.9654 4.20091L40.0587 19.3956L32.2311 20.7769L20.72 29.0649L8.74843 47.0223Z" fill="white"/>
<path d="M37.8708 17.7845C38.9483 14.6627 39.906 11.504 41.1308 8.44667C42.2872 5.47343 44.4782 3.01762 47.3007 1.53078C50.5515 -0.200488 53.1852 0.0389439 55.423 3.03184C55.6673 3.332 55.9319 3.61507 56.2149 3.87905C57.9002 2.84766 59.4565 1.80705 61.0957 0.90458C62.2279 0.156795 63.6107 -0.110962 64.9403 0.160129C66.2698 0.43122 67.4374 1.21899 68.1865 2.35038C70.6361 5.62874 71.5293 7.6547 68.8496 12.0289C68.6999 12.3268 68.5707 12.6345 68.4628 12.9498C70.4576 13.9459 72.1044 15.5221 73.1869 17.4714C74.6419 20.3354 74.4025 22.5547 71.8517 24.5899C70.0319 25.9539 68.1348 27.2115 66.1698 28.3563C63.7018 29.885 61.2154 31.386 58.7013 32.8318C57.6802 33.3539 56.632 33.8212 55.5611 34.2316C55.3934 34.5947 55.2757 34.9788 55.2112 35.3735C54.7968 41.8197 51.5276 46.8662 46.6929 50.826C40.7258 55.8494 33.9628 59.8425 26.682 62.641C22.1973 64.2894 17.4731 65.1827 12.8687 66.5088C9.85735 67.3744 6.86446 68.2953 3.93603 69.4004C2.84017 69.8148 2.09425 69.9437 1.17336 69.1333C0.252469 68.3229 -0.373736 67.2915 0.252469 66.2325C2.3521 62.9726 2.3521 59.1785 3.27299 55.6331C4.45896 51.7159 6.00018 47.9153 7.87744 44.2785C10.2243 39.0332 13.2559 34.122 16.8929 29.6732C20.5765 25.2805 24.7481 21.4496 30.2735 19.5434C32.7714 18.817 35.3078 18.2298 37.8708 17.7845V17.7845ZM11.3584 56.9407C10.4375 56.6645 9.82051 56.4803 9.16668 56.2408C8.51285 56.0014 7.93269 55.7159 7.3249 55.4489C5.57521 59.8784 5.06872 62.5121 5.6673 64.2802C11.2847 62.5213 17.2521 62.0701 23.109 59.7955C21.6816 58.9483 20.4844 58.3497 19.4254 57.5669C19.2052 57.3728 19.0325 57.1307 18.9207 56.8593C18.809 56.5878 18.7611 56.2943 18.7808 56.0014C18.9465 55.1818 19.7017 55.412 20.3279 55.5778C21.4168 55.7961 22.4466 56.2442 23.3486 56.8921C24.2505 57.54 25.004 58.3728 25.5585 59.335L32.281 55.8725C31.5299 54.959 30.7209 54.0946 29.8591 53.2848C28.2936 51.9771 26.6268 50.7892 25.0152 49.5276C24.3982 49.0487 23.6154 48.5146 24.168 47.6029C24.7205 46.6912 25.5677 47.1793 26.286 47.4095C26.6313 47.5797 26.9432 47.8105 27.2069 48.091C29.6196 50.0709 32.3915 51.6732 34.0399 54.7398L40.1086 50.9641C38.4326 50.0433 37.042 49.3342 35.7344 48.5054C34.4267 47.6766 34.2978 46.8662 35.5594 45.4204L42.2174 49.592L46.4719 45.6967L43.7093 43.5326C43.3962 43.3023 42.9081 43.155 42.7884 42.8511C42.5178 42.3232 42.4396 41.7175 42.5674 41.1383C42.8805 40.42 43.6172 40.6226 44.1973 41.0001C45.4866 41.8473 46.7666 42.713 48.1848 43.6615C49.8625 41.5225 50.9542 38.9835 51.3526 36.2944C49.2991 34.8302 47.2455 33.4028 45.2195 31.9294C44.5345 31.4194 43.8938 30.8526 43.3041 30.2349C42.7239 29.6271 42.3832 28.8812 43.1475 28.1721C43.9119 27.463 44.492 28.0064 45.1643 28.5129C47.3191 30.1428 49.5477 31.6807 51.7763 33.2831C53.4983 27.9603 51.9512 24.7464 46.96 22.9967C46.6658 22.8643 46.3566 22.7685 46.0391 22.7113C43.1576 22.3031 40.2552 22.0602 37.3459 21.9837C34.8871 21.9837 32.3271 22.3337 30.384 24.2307C31.8895 26.9574 34.146 29.1947 36.8855 30.6769C37.2907 30.9072 37.7419 31.0729 38.1471 31.3216C38.7549 31.7083 39.3903 32.1504 39.068 33.0068C38.7457 33.8632 37.9261 33.808 37.2722 33.4949C35.6101 32.8076 34.0238 31.9497 32.5389 30.9348C30.7119 29.364 28.969 27.6979 27.3174 25.9436C24.4995 27.417 21.3316 30.3454 20.1713 32.5463C20.6686 34.4434 22.8511 35.9076 21.6632 38.6795L18.2006 35.3274C15.7326 37.4363 15.705 37.5744 17.4179 39.9319C17.6481 40.2542 17.8875 40.5673 18.1269 40.8528C18.7624 41.6816 18.6426 42.4367 17.6849 43.3208L14.0658 41.1659C12.0214 44.6468 10.2165 48.1554 8.63257 51.5075C9.65475 53.4966 12.8687 53.7637 11.3584 56.9407ZM55.9387 29.314C56.175 29.2781 56.4066 29.2164 56.6293 29.1299C59.6038 27.3894 62.6151 25.7041 65.5251 23.8532C66.8931 22.9421 68.1562 21.8828 69.2916 20.6945C69.6531 20.3216 69.8773 19.837 69.9275 19.3201C69.9777 18.8031 69.8509 18.2844 69.5678 17.849C69.3481 17.3789 68.9811 16.9933 68.5224 16.7506C68.0637 16.508 67.5384 16.4216 67.0262 16.5045C66.3981 16.5988 65.781 16.7562 65.1844 16.9741C64.5306 17.2227 63.9228 17.6095 63.2598 17.895C62.5962 18.1401 61.8686 18.1504 61.1983 17.9241C60.5281 17.6979 59.9556 17.2489 59.5762 16.6518C59.0237 15.6204 59.3183 14.8561 60.7089 13.6865C61.1555 13.3682 61.5829 13.0238 61.9889 12.6551C63.3243 11.3438 64.5732 9.94728 65.7277 8.47429C66.193 7.85989 66.422 7.09876 66.373 6.32963C66.3239 5.56051 66.0002 4.83461 65.4607 4.28424C63.4347 4.28424 61.8784 5.41694 60.5339 6.66935C58.4159 8.64926 56.4912 10.8318 54.5113 12.959C54.3355 13.1934 54.115 13.3907 53.8626 13.5395C53.6102 13.6882 53.3308 13.7856 53.0406 13.8258C52.7503 13.866 52.455 13.8484 52.1716 13.7739C51.8882 13.6994 51.6224 13.5696 51.3895 13.3918C50.0818 12.6551 49.7963 11.9092 50.3397 10.5003C50.8001 9.32151 51.3526 8.18882 51.7578 7.00087C51.9924 6.14782 52.1708 5.28033 52.292 4.40396C50.6175 4.60824 49.0654 5.38592 47.8993 6.60489C44.713 9.80037 43.3317 13.972 41.9504 18.2265C43.5527 18.6593 44.9985 19.0093 46.4167 19.4329C51.1224 20.8603 54.852 23.2822 55.6256 28.6418C55.6942 28.8666 55.8 29.0782 55.9387 29.268V29.314Z" fill="black"/>
</svg>
