<svg width="100" height="100" viewBox="0 0 100 100" fill="none" xmlns="http://www.w3.org/2000/svg">
<path d="M20.7484 61.9654C20.7484 61.9654 14.3022 84.9876 17.0649 85.4481C19.8276 85.9085 25.4776 83.5406 31.3387 81.7645C46.5333 77.1601 62.0554 71.1743 66.7929 61.9654C68.9521 57.7683 67.3132 53.9573 70.4765 50.4543C72.958 47.7063 75.0809 47.6916 78.7645 45.8498C82.4481 44.0081 87.445 43.4074 87.9734 38.9432C88.3425 35.8246 84.7503 31.576 84.7503 31.576L77.8436 30.6552L81.5272 25.1298L78.7645 17.7627L71.3974 20.9858L66.7929 17.7627L58.9654 19.144L52.0587 34.3387L44.2311 35.72L32.72 44.0081L20.7484 61.9654Z" fill="white"/>
<path d="M49.8708 32.7276C50.9483 29.6058 51.906 26.4471 53.1308 23.3898C54.2872 20.4165 56.4782 17.9607 59.3007 16.4739C62.5515 14.7426 65.1852 14.9821 67.423 17.975C67.6673 18.2751 67.9319 18.5582 68.2149 18.8222C69.9002 17.7908 71.4565 16.7502 73.0957 15.8477C74.2279 15.0999 75.6107 14.8322 76.9403 15.1032C78.2698 15.3743 79.4374 16.1621 80.1865 17.2935C82.6361 20.5719 83.5293 22.5978 80.8496 26.972C80.6999 27.2699 80.5707 27.5776 80.4628 27.8929C82.4576 28.889 84.1044 30.4652 85.1869 32.4145C86.6419 35.2785 86.4025 37.4978 83.8517 39.533C82.0319 40.897 80.1348 42.1546 78.1698 43.2994C75.7018 44.8281 73.2154 46.3291 70.7013 47.7749C69.6802 48.2971 68.632 48.7643 67.5611 49.1747C67.3934 49.5378 67.2757 49.9219 67.2112 50.3166C66.7968 56.7628 63.5276 61.8093 58.6929 65.7691C52.7258 70.7925 45.9628 74.7857 38.682 77.5841C34.1973 79.2325 29.4731 80.1258 24.8687 81.4519C21.8574 82.3175 18.8645 83.2384 15.936 84.3435C14.8402 84.7579 14.0942 84.8868 13.1734 84.0764C12.2525 83.266 11.6263 82.2346 12.2525 81.1756C14.3521 77.9157 14.3521 74.1216 15.273 70.5762C16.459 66.659 18.0002 62.8584 19.8774 59.2216C22.2243 53.9763 25.2559 49.0652 28.8929 44.6163C32.5765 40.2236 36.7481 36.3927 42.2735 34.4865C44.7714 33.7601 47.3078 33.1729 49.8708 32.7276V32.7276ZM23.3584 71.8838C22.4375 71.6076 21.8205 71.4234 21.1667 71.184C20.5129 70.9445 19.9327 70.6591 19.3249 70.392C17.5752 74.8215 17.0687 77.4552 17.6673 79.2233C23.2847 77.4644 29.2521 77.0132 35.109 74.7386C33.6816 73.8914 32.4844 73.2928 31.4254 72.51C31.2052 72.3159 31.0325 72.0738 30.9207 71.8024C30.809 71.5309 30.7611 71.2374 30.7808 70.9445C30.9465 70.1249 31.7017 70.3552 32.3279 70.5209C33.4168 70.7392 34.4466 71.1873 35.3486 71.8352C36.2505 72.4831 37.004 73.316 37.5585 74.2782L44.281 70.8156C43.5299 69.9021 42.7209 69.0377 41.8591 68.2279C40.2936 66.9202 38.6268 65.7323 37.0152 64.4707C36.3982 63.9918 35.6154 63.4577 36.168 62.546C36.7205 61.6343 37.5677 62.1224 38.286 62.3526C38.6313 62.5228 38.9432 62.7536 39.2069 63.0341C41.6196 65.014 44.3915 66.6163 46.0399 69.6829L52.1086 65.9073C50.4326 64.9864 49.042 64.2773 47.7344 63.4485C46.4267 62.6197 46.2978 61.8093 47.5594 60.3635L54.2174 64.5351L58.4719 60.6398L55.7093 58.4757C55.3962 58.2455 54.9081 58.0981 54.7884 57.7942C54.5178 57.2663 54.4396 56.6607 54.5674 56.0814C54.8805 55.3631 55.6172 55.5657 56.1973 55.9432C57.4866 56.7905 58.7666 57.6561 60.1848 58.6046C61.8625 56.4656 62.9542 53.9266 63.3526 51.2375C61.2991 49.7733 59.2455 48.3459 57.2195 46.8725C56.5345 46.3625 55.8938 45.7957 55.3041 45.178C54.7239 44.5702 54.3832 43.8243 55.1475 43.1152C55.9119 42.4062 56.492 42.9495 57.1643 43.456C59.3191 45.0859 61.5477 46.6238 63.7763 48.2262C65.4983 42.9034 63.9512 39.6895 58.96 37.9398C58.6658 37.8074 58.3566 37.7116 58.0391 37.6544C55.1576 37.2462 52.2552 37.0033 49.3459 36.9269C46.8871 36.9269 44.3271 37.2768 42.384 39.1738C43.8895 41.9005 46.146 44.1378 48.8855 45.6201C49.2907 45.8503 49.7419 46.016 50.1471 46.2647C50.7549 46.6515 51.3903 47.0935 51.068 47.9499C50.7457 48.8063 49.9261 48.7511 49.2722 48.438C47.6101 47.7507 46.0238 46.8928 44.5389 45.8779C42.7119 44.3071 40.969 42.641 39.3174 40.8867C36.4995 42.3601 33.3316 45.2885 32.1713 47.4895C32.6686 49.3865 34.8511 50.8507 33.6632 53.6226L30.2006 50.2706C27.7326 52.3794 27.705 52.5175 29.4179 54.875C29.6481 55.1973 29.8875 55.5104 30.1269 55.7959C30.7624 56.6247 30.6426 57.3798 29.6849 58.2639L26.0658 56.109C24.0214 59.59 22.2165 63.0986 20.6326 66.4506C21.6548 68.4397 24.8687 68.7068 23.3584 71.8838ZM67.9387 44.2571C68.175 44.2213 68.4066 44.1595 68.6293 44.073C71.6038 42.3325 74.6151 40.6473 77.5251 38.7963C78.8931 37.8853 80.1562 36.8259 81.2916 35.6376C81.6531 35.2647 81.8773 34.7801 81.9275 34.2632C81.9777 33.7462 81.8509 33.2276 81.5678 32.7921C81.3481 32.322 80.9811 31.9364 80.5224 31.6938C80.0637 31.4511 79.5384 31.3647 79.0262 31.4476C78.3981 31.5419 77.781 31.6993 77.1844 31.9172C76.5306 32.1659 75.9228 32.5526 75.2598 32.8381C74.5962 33.0832 73.8686 33.0935 73.1983 32.8673C72.5281 32.641 71.9556 32.192 71.5762 31.5949C71.0237 30.5635 71.3183 29.7992 72.7089 28.6296C73.1555 28.3114 73.5829 27.967 73.9889 27.5982C75.3243 26.2869 76.5732 24.8904 77.7277 23.4174C78.193 22.803 78.422 22.0419 78.373 21.2727C78.3239 20.5036 78.0002 19.7777 77.4607 19.2274C75.4347 19.2274 73.8784 20.3601 72.5339 21.6125C70.4159 23.5924 68.4912 25.7749 66.5113 27.9021C66.3355 28.1366 66.115 28.3338 65.8626 28.4826C65.6102 28.6314 65.3308 28.7287 65.0406 28.7689C64.7503 28.8092 64.455 28.7915 64.1716 28.717C63.8882 28.6426 63.6224 28.5127 63.3895 28.335C62.0818 27.5982 61.7963 26.8523 62.3397 25.4434C62.8001 24.2646 63.3526 23.1319 63.7578 21.944C63.9924 21.0909 64.1708 20.2234 64.292 19.3471C62.6175 19.5514 61.0654 20.329 59.8993 21.548C56.713 24.7435 55.3317 28.9151 53.9504 33.1696C55.5527 33.6024 56.9985 33.9524 58.4167 34.376C63.1224 35.8034 66.852 38.2253 67.6256 43.5849C67.6942 43.8097 67.8 44.0214 67.9387 44.2111V44.2571Z" fill="black"/>
</svg>
