<svg width="301" height="299" viewBox="0 0 301 299" fill="none" xmlns="http://www.w3.org/2000/svg">
<path fill-rule="evenodd" clip-rule="evenodd" d="M23.1071 225.693C18.0011 220.519 15.6837 214.422 14.1497 209.027C13.6021 207.101 13.1023 205.058 12.6398 203.167C12.4726 202.484 12.3103 201.82 12.1524 201.19C11.525 198.684 10.8972 196.389 10.0985 194.193C6.07816 183.14 3.11776 169.054 3.82306 156.52L3.83039 156.39L3.84196 156.26C6.91784 121.721 15.5057 98.4194 33.1241 70.5859L33.1298 70.577C56.1292 34.3484 88.4055 13.4259 127.536 5.72451L127.548 5.72208C169.424 -2.45088 205.298 12.7229 239.177 35.4637C275.109 59.583 286.512 97.2134 295.962 134.419C296.262 135.603 296.37 137.2 296.427 138.044L296.43 138.087C296.511 139.293 296.582 140.772 296.645 142.319C296.768 145.344 296.863 148.821 296.927 151.437C298.373 170.866 291.611 189.793 283.415 206.953C268.108 240.049 243.53 266.811 213.206 283.051L213.147 283.082L213.088 283.113C188.735 295.636 161.177 298.446 135.053 291.02C93.2845 280.384 54.7311 257.838 23.1071 225.693ZM144.159 21.5745C143.039 21.7099 141.948 21.8302 140.861 21.9502C136.967 22.3799 133.106 22.8059 128.015 23.9076C121.406 25.338 112.753 27.9289 100.413 33.2088L100.173 33.3116L99.9264 33.3984C84.2381 38.9311 71.3815 50.1345 60.2928 64.4967C49.1811 78.8887 40.205 95.9744 32.0927 112.658L32.0723 112.7L32.0514 112.741C23.0485 130.719 21.4846 144.226 21.9465 164.581C25.2655 186.773 35.1794 208.061 40.152 215.142C73.1134 253.453 111.26 269.272 158.911 277.089C165.926 278.174 178.425 276.395 191.535 271.986C204.628 267.583 216.271 261.243 222.176 254.842L222.88 254.078L223.757 253.519C242.279 241.715 255.748 222.31 267.126 199.965C271.147 191.81 275.067 180.521 277.329 168.853C279.612 157.085 280.048 145.747 277.84 137.125C274.324 124.699 268.225 104.897 263.625 93.4023L263.59 93.3155L263.558 93.2278C260.321 84.5562 253.771 75.0826 245.821 66.2638C237.933 57.5133 229.105 49.8904 221.877 44.8655L221.858 44.8518L221.838 44.838C201.699 30.6575 178.252 21.6587 144.159 21.5745Z" fill="black"/>
</svg>
