<svg width="100" height="100" viewBox="0 0 100 100" fill="none" xmlns="http://www.w3.org/2000/svg">
<path d="M33.4327 49.4122C30.2053 48.3094 24.796 48.1167 24.796 48.1167L14.8637 63.231L21.3413 73.5952C21.3413 73.5952 29.5501 78.7942 35.5919 76.618C40.8757 74.7149 45.5998 71.3826 46.3879 65.8221C46.9795 61.6477 46.2027 59.7839 43.7969 56.3216C41.021 52.3269 38.0358 50.9851 33.4327 49.4122Z" fill="white"/>
<path d="M28.9348 76.9886C26.9701 77.0797 25.0166 76.4469 23.1303 75.6149C19.5953 74.1051 16.7886 71.748 15.1316 68.8977C13.8807 66.6535 13.6595 64.1455 14.5047 61.7904C15.7715 57.8602 18.3326 54.2513 21.9381 51.3159C22.8062 50.6066 22.8462 48.0733 24.0269 47.728C25.2077 47.3828 27.4986 49.2346 28.7557 49.3225C32.4947 49.6908 35.3214 51.0169 38.3048 52.7461C42.1222 54.9649 44.2604 57.9898 44.9825 61.6388C45.7326 65.4654 44.0757 68.733 41.4729 71.9312C38.8702 75.1295 34.9184 76.1132 30.6812 76.954C30.5301 76.9843 29.5281 76.9886 28.9348 76.9886ZM38.9819 70.5057C40.278 68.8977 41.2342 66.1559 41.4729 64.5265C41.4729 60.2081 40.0361 59.0108 38.3048 56.7534C37.086 55.1641 31.5792 52.3591 28.3553 51.3159C27.5381 51.2293 25.7583 48.4306 24.3997 51.3159C21.0805 54.7829 18.9277 57.5786 17.8865 62.3673C17.5243 64.106 18.0695 68.1723 19.1821 69.7085C20.2946 71.2447 23.4558 73.4921 25.4293 73.7646C27.4027 74.0372 27.3506 74.0372 28.3894 74.0372C29.4282 74.0372 31.3496 74.0372 31.3496 74.0372C32.4864 74.0372 33.435 73.8041 33.5493 73.7646C35.9075 72.9499 37.0119 72.9499 38.9819 70.5057Z" fill="black"/>
<path d="M32.1164 71.3832C31.0031 72.8259 29.4077 73.389 28.0534 74.3918C26.699 75.3947 31.5699 74.7965 33.4708 73.389C35.3717 71.9815 36.1795 70.3393 36.572 69.2736C37.407 67.0066 37.7176 65.3637 36.572 63.1723C35.8836 61.8554 35.6721 61.7688 34.1713 60.8256C33.2705 60.2595 32.5416 60.037 32.1164 60.3517C31.0586 61.135 32.8018 61.3667 33.4708 62.3575C34.4169 63.7587 34.1713 66.4576 34.1713 66.4576C34.1713 66.4576 33.4545 69.6494 32.1164 71.3832Z" fill="black"/>
<path d="M54.9744 34.9347L55.4062 44.0033L61.4519 52.64C61.4519 52.64 69.895 56.6967 74.8389 54.7992C80.6474 52.57 83.4757 47.6338 83.4757 41.4122C83.4757 35.1907 79.9606 31.5574 74.8389 28.0253C72.9763 26.7407 71.8573 24.9074 69.6569 25.4342C68.4742 25.7174 67.0658 27.1616 67.0658 27.1616L54.9744 34.9347Z" fill="white"/>
<path d="M63.1896 42.2317C63.7781 40.5071 65.1066 39.4595 66.0651 38.0734C67.0237 36.6873 62.606 38.8246 61.2607 40.77C59.9154 42.7154 59.6804 44.5304 59.6526 45.6657C59.5935 48.0809 59.8294 49.7362 61.6206 51.441C62.6969 52.4654 62.9251 52.4792 64.6498 52.8879C65.6851 53.1332 66.4469 53.1087 66.7478 52.6736C67.4964 51.591 65.7717 51.934 64.8189 51.2119C63.4713 50.1908 62.8333 47.5569 62.8333 47.5569C62.8333 47.5569 62.4823 44.3045 63.1896 42.2317Z" fill="black"/>
<path d="M59.8899 52.2334C58.143 51.3298 56.7676 49.8052 55.55 48.1414C53.2435 45.0664 51.9913 41.6217 51.9815 38.3248C52.0203 35.7558 53.0827 33.4732 54.9922 31.8563C58.0544 29.086 62.0768 27.2411 66.6669 26.5018C67.7735 26.3216 69.0747 24.1476 70.2699 24.439C71.4651 24.7304 72.5232 27.4795 73.5679 28.1842C76.6218 30.3727 78.4068 32.9345 80.1259 35.9237C82.3225 39.754 82.6618 43.4427 81.4626 46.9638C80.1988 50.6528 77.1302 52.6542 73.277 54.1226C69.4238 55.591 65.5096 54.4671 61.4197 53.0765C61.2736 53.0272 60.4038 52.53 59.8899 52.2334ZM71.8325 51.6425C73.7589 50.898 74.3472 50.2721 75.3687 48.9803C76.5301 46.9687 78.2854 42.1972 77.2584 38.7819C76.6817 36.8639 74.4949 32.2257 72.2244 29.7104C70.2699 27.5451 71.4181 25.9131 68.7988 27.7326C64.1908 29.0755 61.5644 30.5901 58.2684 34.2167C55.6536 37.0938 55.3595 39.6442 56.0306 42.0396C56.7017 44.4351 57.1335 46.1624 58.4661 47.6885C59.7986 49.2146 60.5201 49.5296 61.4197 50.049C62.3193 50.5683 63.457 50.8847 63.457 50.8847C64.4414 51.4531 65.3795 51.7256 65.4982 51.7485C67.9479 52.2221 68.9043 52.7743 71.8325 51.6425Z" fill="black"/>
</svg>
