<svg width="72" height="67" viewBox="0 0 72 67" fill="none" xmlns="http://www.w3.org/2000/svg">
<path d="M19.5 14.0829L27 4.08287C27 4.08287 34.7435 -0.680645 40 0.0828734C47.5163 1.17462 52.7068 6.52923 53.5 14.0829C53.8959 17.8534 54.2919 21.0179 51.5 23.5829C48.876 25.9935 45.6491 23.4157 42.5 25.0829C39.5714 26.6333 39.8098 31.2445 36.5 31.0829C34.1194 30.9666 31.5 27.5829 31.5 27.5829L28.5 21.0829L19.5 19.5829V14.0829Z" fill="white"/>
<path d="M49.5 38.4999L37.5 49.4999L38.5 55.4999L46.5 56.4999C46.5 56.4999 46.4503 60.0858 47.5 61.9999C49.3895 65.4454 52.8123 67.8573 56.5 66.4999C59.5498 65.3773 59 60 61 59.4999C63 58.9999 64.5567 61.8611 67 61.4999C71.4929 60.8359 71.9782 55.5416 72 50.9999C72.0279 45.2043 69.1017 41.2499 64 38.4999C59.0154 35.8131 49.5 38.4999 49.5 38.4999Z" fill="white"/>
<path d="M9.5 37L2 46L1 49.5L10.5 53C10.5 53 8.37123 60.1054 11 63C12.9515 65.1488 15.1753 66.1685 18 65.5C21.7476 64.613 20.8262 57 23 57C24.5 57 27.263 58.1997 29.5 57C33.1608 55.0365 32.3055 50.64 31.5115 46.5592L31.5 46.5C30.4926 41.3213 27.8412 38.0966 23 36C18.1489 33.899 9.5 37 9.5 37Z" fill="white"/>
<path d="M40.903 22.9607C40.473 24.0807 40.0829 25.1107 39.7029 26.1407C39.346 27.1458 38.7498 28.0488 37.9658 28.7718C37.1818 29.4949 36.2335 30.0162 35.2029 30.2907C31.1329 31.5707 28.903 28.4907 28.763 25.8007C28.763 24.8707 28.763 23.9407 28.763 22.6707C27.613 22.8507 26.5429 22.9407 25.5229 23.2007C24.4943 23.5263 23.3893 23.5199 22.3645 23.1825C21.3396 22.8451 20.447 22.1937 19.813 21.3207C18.9934 20.343 18.2321 19.3179 17.533 18.2507C17.0447 17.4878 16.7495 16.6176 16.6729 15.7151C16.5962 14.8126 16.7404 13.905 17.0929 13.0707C18.4029 9.82072 19.893 6.59072 22.603 4.27072C24.0448 2.95761 25.749 1.96572 27.603 1.36072C31.603 0.290723 35.733 0.160723 39.603 2.02072C41.9263 3.09774 44.1776 4.32362 46.3429 5.69072C47.7239 6.56321 48.8787 7.75015 49.7129 9.15449C50.5472 10.5588 51.0372 12.1407 51.143 13.7707C51.298 15.6408 51.298 17.5206 51.143 19.3907C51.0922 20.1014 50.8901 20.7929 50.5503 21.4191C50.2105 22.0453 49.7408 22.5917 49.1727 23.0216C48.6045 23.4515 47.9511 23.755 47.2561 23.9118C46.5611 24.0686 45.8406 24.075 45.1429 23.9307C43.7829 23.5707 42.383 23.2807 40.903 22.9607ZM33.313 4.69072C30.383 4.62072 27.713 5.05072 25.513 6.95072C23.2108 9.14067 21.4656 11.8493 20.423 14.8507C19.603 16.8507 21.8529 19.8507 24.0229 19.5807C25.4929 19.4307 27.1229 19.3707 28.1429 17.9007C28.7929 16.9607 29.6429 17.0007 30.6229 17.4807C32.2929 18.3007 32.7929 19.0807 32.6229 21.1807C32.5429 22.6307 32.3029 24.0807 32.3229 25.5207C32.3429 26.9607 33.3229 27.3507 34.3929 26.5207C35.1715 25.9976 35.7964 25.2761 36.2029 24.4307C36.708 23.1747 36.9987 21.8429 37.063 20.4907C37.063 19.4907 37.143 18.6307 38.063 18.3907C38.4568 18.2932 38.8664 18.2766 39.2669 18.3419C39.6674 18.4072 40.0505 18.5531 40.3929 18.7707C41.7229 19.8707 43.3929 20.0207 44.8629 20.4807C45.1014 20.5898 45.3637 20.6363 45.6251 20.6156C45.8865 20.5949 46.1383 20.5079 46.3566 20.3626C46.575 20.2174 46.7526 20.0189 46.8727 19.7858C46.9928 19.5527 47.0514 19.2928 47.0429 19.0307C47.5229 15.0307 47.173 11.2107 43.7229 8.56072C40.703 6.25072 37.293 4.43072 33.313 4.69072Z" fill="black"/>
<path d="M60.1229 57.6907C58.9929 63.9007 56.6229 66.5007 52.3729 66.3307C47.9329 66.1607 46.3729 64.2807 45.7029 58.1507C44.0529 58.0007 42.3929 57.9407 40.7629 57.6707C39.6706 57.4688 38.6419 57.0097 37.7621 56.3316C36.8822 55.6534 36.1764 54.7756 35.7029 53.7707C35.1387 52.5358 35.0777 51.1297 35.5329 49.8507C38.9629 41.8507 44.6029 36.2007 54.3329 36.2007C59.1129 36.2007 63.1729 37.9107 65.5529 42.4807C66.5529 44.4807 67.8329 46.2807 68.8629 48.2407C70.5729 51.5207 69.9629 54.7207 68.0629 57.6907C67.6342 58.3449 66.9964 58.8345 66.2536 59.0797C65.5108 59.3248 64.7069 59.3111 63.9729 59.0407C62.7029 58.6907 61.5129 58.2007 60.1229 57.6907ZM64.9529 56.0807C67.0829 55.0807 66.3929 52.0807 65.2929 50.0807C64.1929 48.0807 62.9329 45.9207 61.7729 43.8307C61.137 42.6531 60.1963 41.6681 59.0494 40.9785C57.9024 40.2889 56.5912 39.9201 55.2529 39.9107C48.0529 39.5307 41.6329 44.1107 38.7029 50.6907C38.5558 50.9305 38.4588 51.1978 38.4179 51.4762C38.377 51.7546 38.3931 52.0385 38.4651 52.3105C38.537 52.5826 38.6635 52.8372 38.8367 53.0589C39.01 53.2807 39.2264 53.465 39.4729 53.6007C40.6058 54.1732 41.82 54.5678 43.0729 54.7707C44.1629 54.9807 44.6829 54.0607 45.2329 53.2607C45.9929 52.1607 47.2329 52.2607 48.2329 52.5407C49.2329 52.8207 49.2329 53.7807 49.2329 54.6707C49.2329 56.2107 49.1629 57.7507 49.2329 59.2907C49.2329 61.4607 49.7929 62.1207 51.7129 62.6007C53.6329 63.0807 55.0229 62.5207 55.7129 60.7907C56.0759 59.6713 56.2384 58.4966 56.1929 57.3207C56.1929 56.1407 56.0229 54.9507 55.9929 53.7607C55.9929 52.8707 56.1429 51.9807 57.1229 51.6707C57.5634 51.545 58.0316 51.5562 58.4655 51.7026C58.8995 51.8491 59.2787 52.1239 59.5529 52.4907C61.0629 53.9307 62.7029 57.1607 64.9529 56.0907V56.0807Z" fill="black"/>
<path d="M22.093 55.8107C21.6858 58.4418 20.6232 60.9281 19.003 63.0407C16.233 66.4007 11.713 65.9707 9.92304 61.9707C9.44754 60.6878 9.17755 59.3379 9.12304 57.9707C9.05808 56.7082 9.05808 55.4432 9.12304 54.1807C7.48304 53.8107 5.95304 53.5907 4.50304 53.1807C0.623036 51.9507 -0.876962 49.3107 0.503038 45.4607C2.89304 38.6507 6.31304 36.0507 12.503 35.7307C14.5473 35.6308 16.5961 35.6809 18.633 35.8807C24.053 36.4107 27.113 40.0207 29.113 44.5707C29.8094 46.5803 30.1938 48.6847 30.253 50.8107C30.2989 51.6255 30.1681 52.4406 29.8695 53.2C29.5709 53.9595 29.1115 54.6454 28.523 55.2107C26.643 57.2207 24.543 56.8907 22.093 55.8107ZM13.803 38.6907C13.803 38.6907 13.403 38.6907 12.983 38.6907C10.7895 38.7869 8.68623 39.5911 6.98805 40.9828C5.28987 42.3745 4.08822 44.2789 3.56304 46.4107C3.00304 48.8407 3.64304 49.9707 6.03304 50.5807C7.02375 50.7918 8.02524 50.9487 9.03304 51.0507C11.543 51.4307 12.173 52.1607 12.203 54.7307C12.1595 55.5009 12.1762 56.2732 12.253 57.0407C12.3704 58.2211 12.6531 59.3791 13.093 60.4807C13.883 62.1207 15.093 62.3407 16.353 61.0907C17.2824 60.233 17.9953 59.1672 18.433 57.9807C18.6773 56.7514 18.701 55.4884 18.503 54.2507C18.423 53.1507 17.963 52.0007 19.083 51.1907C20.203 50.3807 21.173 50.7307 22.493 51.9507C23.003 52.4107 23.493 52.9507 23.963 53.3807C24.0899 53.5311 24.2545 53.6451 24.4399 53.711C24.6253 53.7769 24.8249 53.7923 25.0182 53.7557C25.2115 53.7191 25.3916 53.6317 25.5401 53.5026C25.6885 53.3734 25.8 53.2071 25.863 53.0207C26.6667 51.5915 26.8785 49.9043 26.453 48.3207C25.243 43.0007 21.463 38.2407 13.803 38.6907Z" fill="black"/>
</svg>
