<svg width="100" height="100" viewBox="0 0 100 100" fill="none" xmlns="http://www.w3.org/2000/svg">
<path d="M20.5845 27.2869L24.9158 15.5614C24.9158 15.5614 30.9761 8.78458 36.2317 8.01489C43.7467 6.91432 50.2504 10.5633 53.168 17.5757C54.6244 21.0761 55.9078 23.9956 53.9648 27.2512C52.1386 30.3109 48.3099 28.7621 45.7681 31.2593C43.4044 33.5816 44.9499 37.9327 41.7319 38.7231C39.4172 39.2916 35.9405 36.797 35.9405 36.797L31.2089 31.4247L22.1554 32.5578L20.5845 27.2869Z" fill="white"/>
<path d="M82.0784 61.1331L65.8037 61.4981L62.6017 66.6699L67.9596 72.6942C67.9596 72.6942 65.5591 75.3584 65.0872 77.4899C64.2376 81.3265 65.2225 85.3963 68.8906 86.8056C71.9242 87.9711 75.0545 83.5644 76.8883 84.5063C78.7221 85.4483 78.0073 88.6261 80.083 89.9647C83.8998 92.4262 87.7539 88.764 90.7633 85.3625C94.6038 81.0219 95.0089 76.1193 92.9841 70.6889C91.0058 65.3831 82.0784 61.1331 82.0784 61.1331Z" fill="white"/>
<path d="M23.5 53.9998L16 62.9998L15 66.4998L24.5 69.9998C24.5 69.9998 22.3712 77.1052 25 79.9998C26.9515 82.1486 29.1752 83.1683 32 82.4998C35.7476 81.6128 34.8262 73.9998 36.9999 73.9998C38.4999 73.9998 41.263 75.1996 43.4999 73.9998C47.1607 72.0363 46.3054 67.6399 45.5115 63.5591L45.4999 63.4998C44.4925 58.3212 41.8411 55.0965 36.9999 52.9998C32.1488 50.8989 23.5 53.9998 23.5 53.9998Z" fill="white"/>
<path d="M42.6315 29.6817C42.5393 30.8779 42.4597 31.9764 42.3898 33.072C42.3348 34.1371 42.0213 35.1728 41.4765 36.0897C40.9317 37.0065 40.1718 37.7769 39.2626 38.3344C35.7277 40.7236 32.7109 38.4088 31.8084 35.8709C31.5428 34.9796 31.2772 34.0884 30.9144 32.8713C29.8637 33.3723 28.864 33.7641 27.9608 34.3046C27.068 34.9105 26.0072 35.22 24.9287 35.1893C23.8502 35.1587 22.8087 34.7894 21.9517 34.1339C20.887 33.431 19.8646 32.666 18.8898 31.843C18.204 31.2513 17.6726 30.5017 17.3413 29.6587C17.0101 28.8157 16.889 27.9047 16.9886 27.0045C17.3158 23.5157 17.8211 19.9947 19.7556 16.9973C20.7622 15.3271 22.1122 13.8897 23.7161 12.7804C27.2438 10.6125 31.1646 9.30828 35.4047 9.98542C37.9388 10.354 40.4465 10.8857 42.9121 11.5774C44.4847 12.0191 45.9304 12.8268 47.131 13.9343C48.3317 15.0419 49.2531 16.4179 49.82 17.9498C50.5028 19.6977 51.0397 21.4991 51.4252 23.3357C51.5795 24.0312 51.5834 24.7517 51.4366 25.4488C51.2898 26.146 50.9957 26.8037 50.574 27.378C50.1524 27.9523 49.6128 28.4298 48.9916 28.7785C48.3703 29.1273 47.6817 29.3393 46.9719 29.4003C45.5657 29.4437 44.1412 29.5657 42.6315 29.6817ZM30.1393 14.3408C27.3114 15.1106 24.8755 16.2853 23.3098 18.7345C21.7291 21.4907 20.8302 24.585 20.6883 27.7592C20.4737 29.9101 23.4868 32.1424 25.4893 31.2639C26.8552 30.7003 28.4002 30.1772 28.9578 28.4771C29.3123 27.3906 30.1383 27.1862 31.2145 27.3662C33.0492 27.6751 33.7511 28.2798 34.188 30.3409C34.5255 31.7533 34.7097 33.2114 35.1401 34.5857C35.5706 35.96 36.6212 36.0539 37.4095 34.9528C38.0062 34.2291 38.399 33.3592 38.5472 32.4329C38.6724 31.085 38.5706 29.7256 38.246 28.4114C37.9603 27.4531 37.7914 26.6061 38.6045 26.1133C38.9541 25.9073 39.3419 25.7744 39.7443 25.7226C40.1468 25.6708 40.5556 25.7012 40.946 25.812C42.5347 26.4862 44.178 26.153 45.7182 26.174C45.9778 26.2104 46.2425 26.18 46.4871 26.0855C46.7317 25.9911 46.9481 25.8357 47.1159 25.6342C47.2836 25.4326 47.3972 25.1916 47.4457 24.9339C47.4942 24.6763 47.4761 24.4105 47.3932 24.1617C46.7107 20.1913 45.2842 16.6304 41.221 15.0762C37.667 13.725 33.8793 12.9548 30.1393 14.3408Z" fill="black"/>
<path d="M77.4211 82.5675C72.4786 86.4935 68.9827 86.8871 65.8982 83.9584C62.6708 80.9045 62.7365 78.4625 66.2723 73.4104C65.1302 72.2102 63.9212 71.0711 62.8732 69.7938C62.1847 68.9221 61.7135 67.8989 61.4987 66.809C61.2838 65.7191 61.3314 64.5938 61.6376 63.5259C62.027 62.2253 62.9078 61.1275 64.0931 60.4656C71.9451 56.709 79.9105 56.1764 87.2286 62.5887C90.8238 65.7388 92.7505 69.7006 91.5288 74.7062C90.9629 76.8695 90.7393 79.0669 90.2223 81.2198C89.3469 84.8137 86.7792 86.8185 83.3929 87.8001C82.6393 88.0096 81.8369 87.9575 81.1167 87.6524C80.3965 87.3473 79.8009 86.8072 79.427 86.1201C78.7025 85.0199 78.1304 83.8671 77.4211 82.5675ZM82.1148 84.5397C84.3759 85.1913 85.834 82.4802 86.3247 80.251C86.8154 78.0219 87.2912 75.5669 87.7961 73.2305C88.0938 71.9257 88.0355 70.5649 87.6273 69.2904C87.2191 68.0159 86.476 66.8744 85.4756 65.9854C80.3108 60.9546 72.4638 60.1684 65.9238 63.1864C65.655 63.2699 65.406 63.407 65.1917 63.5894C64.9775 63.7719 64.8025 63.9959 64.6774 64.248C64.5522 64.5 64.4795 64.7749 64.4637 65.0558C64.4478 65.3368 64.4891 65.618 64.5852 65.8826C65.0599 67.0597 65.713 68.1567 66.5217 69.135C67.2032 70.0113 68.2006 69.662 69.1414 69.4228C70.438 69.0963 71.3047 69.9887 71.8723 70.8583C72.4399 71.728 71.8072 72.45 71.2207 73.1194C70.2058 74.2776 69.1383 75.3898 68.176 76.5942C66.746 78.2263 66.7322 79.0917 67.8599 80.7181C68.9877 82.3444 70.4022 82.8393 72.0612 81.9928C73.0719 81.3901 73.9683 80.6136 74.7091 79.6993C75.4867 78.8118 76.1431 77.8047 76.9048 76.8899C77.4913 76.2205 78.1906 75.65 79.132 76.0627C79.5461 76.2584 79.8909 76.5754 80.1207 76.9715C80.3506 77.3676 80.4547 77.8242 80.4193 78.2809C80.606 80.359 79.7108 83.8692 82.1082 84.5472L82.1148 84.5397Z" fill="black"/>
<path d="M36.093 72.8105C35.6857 75.4415 34.6231 77.9278 33.003 80.0405C30.233 83.4005 25.713 82.9705 23.923 78.9705C23.4475 77.6876 23.1775 76.3376 23.123 74.9705C23.0581 73.708 23.0581 72.443 23.123 71.1805C21.483 70.8105 19.953 70.5905 18.503 70.1805C14.623 68.9505 13.123 66.3105 14.503 62.4605C16.893 55.6505 20.313 53.0505 26.503 52.7305C28.5472 52.6306 30.5961 52.6807 32.633 52.8805C38.053 53.4105 41.113 57.0205 43.113 61.5705C43.8093 63.5801 44.1937 65.6845 44.253 67.8105C44.2988 68.6253 44.168 69.4403 43.8694 70.1998C43.5708 70.9592 43.1115 71.6452 42.523 72.2105C40.643 74.2205 38.543 73.8905 36.093 72.8105ZM27.803 55.6905C27.803 55.6905 27.403 55.6905 26.983 55.6905C24.7895 55.7867 22.6862 56.5909 20.988 57.9826C19.2899 59.3743 18.0882 61.2787 17.563 63.4105C17.003 65.8405 17.643 66.9705 20.033 67.5805C21.0237 67.7916 22.0252 67.9485 23.033 68.0505C25.543 68.4305 26.173 69.1605 26.203 71.7305C26.1594 72.5006 26.1762 73.273 26.253 74.0405C26.3703 75.2209 26.6531 76.3789 27.093 77.4805C27.883 79.1205 29.093 79.3405 30.353 78.0905C31.2824 77.2328 31.9952 76.167 32.433 74.9805C32.6773 73.7511 32.701 72.4881 32.503 71.2505C32.423 70.1505 31.963 69.0005 33.083 68.1905C34.203 67.3805 35.173 67.7305 36.493 68.9505C37.003 69.4105 37.493 69.9505 37.963 70.3805C38.0898 70.5309 38.2544 70.6449 38.4398 70.7108C38.6252 70.7767 38.8248 70.7921 39.0181 70.7555C39.2114 70.7188 39.3916 70.6315 39.54 70.5023C39.6885 70.3732 39.7999 70.2069 39.863 70.0205C40.6666 68.5913 40.8784 66.9041 40.453 65.3205C39.243 60.0005 35.463 55.2405 27.803 55.6905Z" fill="black"/>
</svg>
