<svg width="271" height="292" viewBox="0 0 271 292" fill="none" xmlns="http://www.w3.org/2000/svg">
<path d="M132.85 291.908C116.207 292.867 99.658 286.198 83.6783 277.427C55.8788 262.653 33.6062 261.59 19.2965 234.408C16.1292 231.908 9.71009 194.788 4.79663 187.908C-5.80029 164.252 3.44757 156.527 10.6078 131.703C21.3389 90.2734 43.0347 52.2318 73.5784 21.29C80.933 13.813 89.9501 8.03809 99.9528 4.39868C109.955 0.759266 120.684 -0.650065 131.333 0.276465C163.008 4.15941 186.954 18.138 212.227 36.365C222.617 43.8794 235.305 44.7951 242.832 54C258.733 73.4458 264.645 103.998 268.797 130.104C275.15 170.441 261.115 204.885 239.066 238.598C217.017 272.311 183.54 282.68 147.645 291.543C146.364 291.862 137.877 291.908 132.85 291.908ZM265.021 147.986C264.08 137.78 254.643 123.288 252.646 113.224C244.585 80.288 210.226 38.9688 178.551 21.29C159.935 10.6006 136.115 14.898 115.645 14.898C92.8025 17.8776 81.3549 25.0332 73.5784 30.7891C34.1744 65.5528 24.7383 104.461 15.9186 154.939C12.8497 173.267 21.6572 209.263 31.082 225.456C43.0141 246.811 62.1441 259.795 83.6783 272.356C100.369 281.812 127.871 287.047 147.645 282.068C159.649 278.736 173.211 266.844 184.738 262.204C204.037 254.986 223.569 237.243 234.238 221.483C249.27 199.556 264.832 175.167 265.021 147.986Z" fill="black"/>
</svg>
