<svg width="100" height="100" viewBox="0 0 100 100" fill="none" xmlns="http://www.w3.org/2000/svg">
<path d="M35.1857 27.6228L44.1264 32.9873L46.3616 31.6462L51.726 17.7881L59.7726 20.9173C59.7726 20.9173 49.9378 23.5995 49.9378 27.6228C49.9378 31.6462 64.69 29.858 64.69 29.858C64.69 29.858 70.5014 26.7288 74.0777 37.9046C77.654 49.0805 75.4188 70.9852 74.0777 74.5614C72.7366 78.1377 72.3828 79.7831 69.6074 81.267C66.8362 82.7486 61.5607 81.267 61.5607 81.267H46.3616L33.3976 82.6081L26.245 76.7966V37.9046L35.1857 27.6228Z" fill="#FFACA3"/>
<path d="M43.4566 30.9399C43.9723 30.5475 44.523 30.2033 45.1017 29.9117C45.5224 29.7377 45.8794 29.4385 46.1241 29.0546C46.3688 28.6707 46.4895 28.2207 46.4696 27.7659C46.8659 24.2559 48.2 20.9174 50.332 18.101C50.7751 17.4778 51.3015 16.9183 51.8966 16.4381C52.0323 16.2994 52.1943 16.1892 52.3732 16.114C52.5521 16.0387 52.7441 16 52.9382 16C53.1322 16 53.3243 16.0387 53.5032 16.114C53.682 16.1892 53.8441 16.2994 53.9798 16.4381C54.9275 17.4752 56.206 17.6808 57.4488 18.0474C58.2508 18.2874 59.0219 18.6205 59.7465 19.0398C60.0194 19.1765 60.2559 19.3763 60.4363 19.6225C60.6167 19.8688 60.7359 20.1544 60.7839 20.4559C60.832 20.7573 60.8076 21.0659 60.7127 21.356C60.6178 21.6462 60.4551 21.9095 60.2382 22.1243C59.8166 22.5654 59.3524 22.9637 58.8524 23.3135C56.501 25.1016 54.1496 26.9434 51.6999 28.8567C52.2743 29.438 52.964 29.8926 53.7247 30.1913C54.4854 30.49 55.3001 30.6262 56.1166 30.5912C58.2438 30.5421 60.3722 30.6137 62.4913 30.8057C65.406 31.0293 67.355 32.8532 69.018 35.0257C71.3156 38.1334 72.5678 41.8899 72.5943 45.7546C72.7194 48.6514 72.6747 51.5571 72.5943 54.4628C72.4989 60.3339 72.3767 66.2109 72.2277 72.0938C72.2331 73.7428 71.8773 75.3729 71.1853 76.8696C70.4934 78.3663 69.482 79.6933 68.2223 80.7574C67.445 81.4324 66.5411 81.9461 65.5633 82.2685C64.5856 82.5908 63.5535 82.7154 62.5271 82.6349C61.0072 82.5634 59.2995 82.7154 57.7796 82.6349C56.054 82.5813 54.5073 82.1879 52.7817 82.2862C51.5808 82.4963 50.3612 82.5802 49.1429 82.5366C47.3423 82.2932 45.5103 82.452 43.7784 83.0015C42.5824 83.2306 41.3662 83.3385 40.1485 83.3233C38.6286 83.3949 37.0908 83.3233 35.5709 83.4485C29.4555 84.0475 26.8358 80.8468 25.4679 76.296C23.8462 70.8687 23.2519 65.1864 23.7155 59.5411C24.0911 54.6684 24.243 49.7779 24.4219 44.8963C24.6544 40.8505 25.4736 36.86 26.8537 33.0499C28.4273 28.3739 35.1864 24.4221 40.7297 28.9193C41.5969 29.6345 42.5357 30.2693 43.4566 30.9399ZM42.4195 79.9527C39.3394 72.554 37.8029 64.6042 37.9044 56.5907C37.9265 48.6263 39.4585 40.7384 42.4195 33.3449C41.0158 32.3167 39.7373 31.3511 38.4587 30.4571C37.9547 30.1096 37.3723 29.8926 36.7637 29.8255C36.1552 29.7584 35.5395 29.8433 34.9719 30.0726C33.9386 30.3746 32.9903 30.9144 32.2032 31.6488C31.416 32.3831 30.8118 33.2917 30.4389 34.3016C29.1938 37.2568 28.4156 40.3877 28.1322 43.582C27.864 49.3756 27.4349 55.2049 27.2382 60.9627C27.1306 64.0113 27.2651 67.0637 27.6405 70.0911C28.0493 72.574 28.6684 75.0177 29.4912 77.3957C29.9025 78.701 30.5731 80.1941 32.1734 80.2656C35.3384 80.3908 39.0041 79.9795 42.4195 79.9527ZM45.2537 77.3957C46.8809 78.558 49.4558 77.9321 51.3601 77.9142C54.4089 77.9142 54.7487 76.734 54.8291 73.6137C54.8828 71.6289 54.8291 69.6351 54.9096 67.6593C55.2672 61.1743 55.6517 54.6982 56.0629 48.2311C56.3147 44.2624 55.9894 40.278 55.0974 36.4026C54.893 35.3962 54.4178 34.4646 53.723 33.7083C53.0282 32.952 52.1401 32.3998 51.1545 32.1111C50.4393 31.8607 49.1339 31.673 48.4723 32.1737C47.8759 32.6402 47.3385 33.1777 46.8719 33.7741C44.6368 36.4563 43.689 40.5511 42.9738 44.0022C42.1547 47.1553 41.7431 50.4004 41.7489 53.6581C41.7489 57.6993 42.0082 61.7048 42.3569 65.7728C42.7056 69.8408 41.9098 75.0264 45.2537 77.3957ZM56.7961 79.4967C59.076 79.613 60.882 79.8007 62.688 79.7471C63.5247 79.7036 64.3247 79.3899 64.9679 78.853C67.0689 76.9754 68.5441 74.7492 68.6425 71.763C68.7051 68.4013 68.9465 65.0396 68.9733 61.6869C69.0269 56.4119 68.9733 51.1369 68.9733 45.8619C68.9252 43.1757 68.3161 40.5293 67.1852 38.0924C66.5273 36.3748 65.2578 34.9609 63.6206 34.1225C61.9835 33.2841 60.0942 33.0804 58.316 33.5505C58.8256 36.3043 59.7018 39.0491 59.7733 41.8117C59.9164 47.1761 59.675 52.6568 59.4694 58.0659C59.2905 62.5362 58.772 67.0692 58.7094 71.5663C58.5842 74.2307 58.5842 76.8145 56.7961 79.4967ZM50.7075 24.8065L51.1098 25.1642L56.0808 21.0336C53.5953 19.5852 53.3986 19.612 52.1738 21.8025C51.6284 22.7681 51.1903 23.7962 50.7075 24.8065Z" fill="black"/>
</svg>
