<svg width="100" height="100" viewBox="0 0 100 100" fill="none" xmlns="http://www.w3.org/2000/svg">
<path d="M41 34L35 21L44 23L46.5 13.5L51 19.5L58.5 13.5L57.5 23C57.5 23 70.4718 17.5001 73 23C74 25.1754 64 35 64 35C67 39.5 68.1645 40.1954 70 44C76.2718 57 75 71 72 77C69 83 63.027 90.5873 53.5 91C48.3794 91.2218 41 87 41 87L32 75.5V47.5L41 34Z" fill="white"/>
<path d="M37.7996 34.2911C37.4222 30.669 36.2786 27.1677 34.4443 24.0182C33.6556 22.5685 32.8572 21.1221 32.049 19.679C31.5351 18.7802 31.0793 17.8911 32.049 17.0117C33.0188 16.1322 33.9885 16.6058 34.9582 17.1953C36.8977 18.384 38.9729 19.4953 41.0094 20.6067C41.5486 20.8286 42.1027 21.0126 42.6676 21.1576C42.9101 20.1912 43.1331 19.3117 43.3174 18.4709C43.841 16.1322 44.2871 13.7838 44.8689 11.4548C45.2568 9.79255 46.0229 9.00975 47.1672 9.00009C48.3115 8.99042 48.9321 9.79255 49.3685 11.5901C49.8049 13.3876 50.2412 15.2141 50.7455 17.3016C52.3068 16.1419 52.9468 14.6633 54.0329 13.6195C55.2717 12.3198 56.6694 11.1802 58.1931 10.2274C60.0259 9.26102 61.2671 10.0245 61.3544 12.1119C61.3516 13.1794 61.2081 14.2419 60.9277 15.2721C60.4913 17.0986 59.958 18.9058 59.347 21.0706L65.1654 19.9882C66.1352 19.8046 67.1049 19.5533 68.0746 19.3697C70.0141 19.0025 71.3233 20.4231 70.4796 22.2689C69.9276 23.5633 69.142 24.7458 68.1619 25.7577C66.0546 27.9848 64.2869 30.5083 62.9157 33.2474C61.9459 35.0063 62.0138 35.1802 63.3811 36.6878C65.1891 38.7657 66.6168 41.1437 67.5995 43.7137C70.776 51.3964 71.7528 59.8065 70.4214 68.0093C70.0529 70.5316 69.762 75.1414 69.5389 76.1078C68.0262 82.5152 62.8866 87.2216 56.2439 89.7343C49.6012 92.2469 43.9283 90.8843 38.5269 86.835C34.9195 84.1484 33.0576 80.3021 31.4187 76.2818C28.5968 69.3816 28.5677 62.2301 29.6926 55.0207C30.3908 50.7083 31.3625 46.4443 32.6018 42.2544C33.5133 39.2392 34.7934 36.224 37.7996 34.2911ZM59.0367 33.1024C60.8113 30.1162 62.7508 26.9947 64.6903 23.7089C62.5666 23.8076 60.5293 24.5757 58.8719 25.9027C58.2876 26.427 57.5342 26.7253 56.7482 26.7434C55.0899 26.5308 54.6147 25.5354 55.0802 23.8442C55.7396 21.4958 56.4088 19.1571 57.0197 16.8087C55.2359 18.0727 53.8582 19.825 53.0535 21.8534C52.3165 23.3223 51.114 23.7282 49.834 22.7522C49.0867 22.0221 48.4817 21.1603 48.0497 20.2105C47.805 19.6943 47.607 19.1575 47.4581 18.6062C46.893 20.3052 46.4681 22.0473 46.1878 23.8152C45.829 25.6804 45.218 25.9896 43.4434 25.2358C43.0052 25.021 42.5921 24.7585 42.2119 24.453C40.7349 23.4784 39.0917 22.7808 37.3632 22.3946L41.2421 32.4356C44.1513 32.0007 47.1187 31.1599 49.9697 31.2566C52.8207 31.3532 55.8172 32.397 59.0367 33.1024ZM54.1881 74.2523V65.5546C50.7843 65.6319 47.623 65.4966 44.3259 66.4147C44.5586 69.2463 44.7816 71.9039 45.0144 74.7259L54.1881 74.2523ZM44.3841 62.578C47.7199 62.3461 50.8037 62.578 54.0814 61.9112C53.7711 59.1666 53.7808 56.6539 53.4026 53.8707L44.3938 54.8371L44.3841 62.578ZM45.6447 78.2049L47.012 86.9607C48.9289 87.4286 50.9357 87.3853 52.8304 86.835C53.3735 86.6707 54.5663 86.5451 54.5857 86.1295C54.6876 83.2618 54.5416 80.3906 54.1493 77.5478L45.6447 78.2049ZM57.4658 61.1961C61.2186 61.6213 65.1364 61.428 67.1631 60.6935C67.0661 58.7124 66.6298 55.8132 66.4358 53.8803C63.3389 53.6864 60.2329 53.6864 57.1361 53.8803C57.2427 56.0741 57.3494 58.7704 57.4658 61.1961ZM58.2222 65.3903V73.8658L65.66 73.025C66.191 70.4841 66.351 67.8801 66.1352 65.2937C63.5005 65.0718 60.8506 65.1042 58.2222 65.3903V65.3903ZM41.4167 74.9868C41.2421 71.9812 41.0773 69.1883 40.893 66.2214L32.9994 66.9366C33.0337 70.0046 33.7946 73.0211 35.2201 75.7406L41.4167 74.9868ZM44.3259 41.7325L52.9662 41.1527C52.8207 38.6497 52.685 36.4752 52.5589 34.3878C51.1211 33.9792 49.6147 33.8679 48.1322 34.0606C46.6497 34.2534 45.2224 34.7462 43.938 35.5088C44.1319 37.4513 44.2483 39.4324 44.3938 41.7325H44.3259ZM33.0188 62.781H40.8639V54.9434L33.0188 55.8132V62.781ZM53.7808 50.6042C53.6353 48.5361 53.5189 46.8738 53.3929 45.0473L44.5198 45.9171V51.0681L53.7808 50.6042ZM65.3497 49.8117C65.2091 47.9018 64.6532 46.0452 63.7205 44.3708L56.6997 44.8154C56.7869 46.5163 56.8645 48.1785 56.9518 49.8117H65.3497ZM41.3003 45.8301C39.051 46.1682 36.785 46.3844 34.5122 46.4776C34.2019 48.0239 34.0176 50.15 33.7073 51.7059C36.1219 51.5803 36.1704 51.7059 38.2069 51.4836C38.6335 51.4836 41.3391 51.4836 41.3779 51.0681C41.5039 49.7247 41.3294 47.5503 41.3003 45.8301V45.8301ZM36.3644 78.4369C37.9935 81.1525 39.4287 83.6459 42.6385 85.2018C42.3573 82.7664 42.1246 80.6983 41.8628 78.4369H36.3644ZM58.4549 77.4705V83.8391C61.2186 82.0223 62.8478 79.4806 64.3315 77.0066C62.0041 76.6973 60.2489 77.2192 58.4549 77.4318V77.4705ZM59.0076 40.2249C59.9387 40.1578 60.8648 40.0352 61.7811 39.8577C60.2004 38.6883 58.5034 36.7845 56.2342 35.7214C56.3215 37.5866 56.3797 38.9976 56.4475 40.5052L59.0076 40.2249ZM40.8348 37.1034C38.3135 37.9248 37.6929 39.848 37.0044 42.1384L40.8348 41.9644V37.1034Z" fill="black"/>
</svg>
