<svg width="100" height="100" viewBox="0 0 100 100" fill="none" xmlns="http://www.w3.org/2000/svg">
<path d="M22.4471 44.4029L55.8626 18.0756C55.8626 18.0756 54.6247 22.6878 55.8626 25.1637C57.8878 29.214 72.5703 36.8085 78.1396 44.4029C83.7088 51.9973 89.5769 65.0656 83.7088 74.2743C82.0956 76.8058 75.1018 83.8939 57.8878 83.8939C56.7014 83.8939 58.3849 85.8545 57.8878 86.9317C56.7014 89.502 53.9678 84.8575 51.3059 83.8939C45.4681 81.7805 35.6108 81.3624 35.6108 81.3624L20.4219 72.7554L16.3716 56.554L22.4471 44.4029Z" fill="white"/>
<path d="M54.3822 82.6538L55.813 84.3352C54.9017 85.185 54.9017 85.185 52.6234 85.0133L54.5189 87.201C53.2886 88.3491 52.3135 87.0564 51.2746 87.0292C50.2357 87.0021 49.1603 86.8394 47.9483 86.7128C47.9591 87.0896 47.9223 87.4661 47.8389 87.8338C47.7113 88.2406 47.5108 88.8282 47.201 88.9367C46.8911 89.0452 46.3625 88.6926 46.0527 88.4033C45.7206 87.992 45.4391 87.5429 45.2143 87.0654C44.9294 87.3209 44.6247 87.5536 44.3029 87.7615C43.9111 87.9694 43.2185 88.331 43.1 88.2045C42.7751 87.8002 42.5785 87.3094 42.535 86.7942C42.5337 86.4271 42.5985 86.0628 42.7263 85.7184C42.0611 85.2935 41.2864 85.0223 40.9584 84.4889C40.7943 84.2177 41.4414 83.4583 41.7786 82.8075C41.0677 82.7171 40.2111 82.5814 39.3544 82.5001C33.6404 82.0029 28.3091 80.4841 23.8618 76.7415C18.5579 72.3027 15.2862 66.7972 14.8943 59.7459C14.4387 51.6097 17.7377 45.4804 24.4724 40.9151C31.2071 36.3498 37.9236 31.6127 43.4463 25.5015C43.8761 25.0653 44.275 24.6002 44.6401 24.1093C45.4148 22.9974 45.9069 21.9397 44.7221 20.674C44.3229 20.3328 44.0751 19.8493 44.0325 19.3282C43.9898 18.8071 44.1557 18.2903 44.4943 17.8897L46.5357 19.8785C46.9185 18.5948 46.882 18.5225 45.5697 16.2624C44.9226 15.1143 44.3576 13.9391 43.4463 12.4022C46.2896 12.565 46.5995 15.1143 48.2946 16.0183C49.0965 15.5482 48.8596 14.6081 49.1421 13.912C49.4246 13.2159 49.5431 11.9141 50.6367 12.0045C51.949 12.1039 51.712 13.3153 51.6938 14.2555C51.7021 14.3111 51.724 14.3639 51.7576 14.4092C52.3773 14.6171 53.1519 14.6623 53.5256 15.0601C53.8992 15.4578 53.799 16.1991 53.7808 16.7777C53.7808 17.519 53.6076 18.2422 53.4891 19.1734C55.2024 18.2151 55.5214 15.9098 57.3714 15.3946C58.146 15.8556 58.0184 16.3619 57.7633 16.8862C56.6879 19.0739 55.6125 21.2707 54.5189 23.4584C53.6076 25.2665 53.6076 25.5829 55.2116 26.8756C56.8155 28.1684 58.4741 29.1086 60.0963 30.2296C65.9744 34.2796 71.415 38.7997 75.7074 44.5402C78.1587 47.8318 79.6983 51.7029 80.1729 55.7682C80.4736 58.1277 80.9931 60.451 81.4214 62.7834C82.8795 70.576 78.0768 76.6149 71.5243 78.7936C69.1115 79.523 66.6553 80.1026 64.1699 80.5293C61.0805 81.1531 57.982 81.6684 54.8835 82.247C54.7103 82.2831 54.5736 82.482 54.3822 82.6538ZM51.2564 27.9243L50.8098 28.0418C49.8985 30.2296 49.133 32.4896 48.0758 34.5779C46.4423 37.4753 45.0465 40.4985 43.902 43.6181C41.6473 50.0437 40.7175 56.8532 41.168 63.6422C41.6447 69.2341 42.6734 74.7661 44.2391 80.1587C47.046 80.5655 49.8712 80.1587 52.6872 79.788C52.8828 79.7373 53.0653 79.6457 53.2225 79.5195C53.3797 79.3932 53.5078 79.2351 53.5985 79.0558C54.8407 77.0229 55.7223 74.7939 56.2049 72.4654C56.5603 70.1873 56.8611 67.9453 57.0707 65.6039C57.3714 62.2952 57.499 58.9774 57.8362 55.6597C58.1809 52.6874 57.9677 49.6775 57.2074 46.7822C55.968 42.2621 54.5372 37.8233 53.1428 33.3665C52.5596 31.5585 51.8943 29.7504 51.2564 27.9243ZM41.9426 80.005C36.0372 63.154 36.7298 46.9901 45.9889 31.4952C43.4463 33.7914 40.7123 35.8526 38.9808 38.7906C36.6842 42.7141 34.5061 46.7189 32.4192 50.7599C31.5605 52.4555 30.8971 54.2416 30.4416 56.0846C28.5734 63.3167 30.2047 70.35 31.9453 77.3472C32.0375 77.6679 32.2008 77.9642 32.4231 78.2144C32.6453 78.4646 32.9211 78.6625 33.2303 78.7936C36.0522 79.6487 38.9924 80.0575 41.9426 80.005V80.005ZM56.2049 32.7608L55.6581 33.0772C56.4418 35.509 57.0798 38.0132 58.0549 40.3727C60.4834 46.4654 61.4113 53.0451 60.7615 59.5651C60.5428 62.2771 60.1965 64.9892 59.8502 67.7013C59.6303 70.8202 58.9834 73.895 57.9273 76.8409C57.6539 77.5099 57.4352 78.206 57.0615 79.2637C59.8684 78.7394 62.3928 78.2873 64.9081 77.763C65.0892 77.6924 65.2529 77.5841 65.3882 77.4453C65.5234 77.3064 65.627 77.1404 65.6918 76.9584C66.3024 75.0961 66.913 73.2158 67.3869 71.3083C68.1433 68.2979 67.8881 65.2514 67.5783 62.1958C67.1682 58.2813 67.0497 54.3308 66.5212 50.4435C65.8194 45.3177 63.2039 41.0145 59.9687 37.064C58.7657 35.5542 57.4716 34.1801 56.2049 32.7608ZM36.5657 36.3046L36.2559 36.0153C35.7364 36.3769 35.2079 36.7385 34.6975 37.1182C31.8997 39.1703 29.0746 41.1953 26.3042 43.2927C21.7475 46.7099 18.3847 50.796 18.2754 56.7987C18.2754 57.5491 18.1387 58.2904 18.1478 59.0317C18.1933 66.065 21.2919 71.5433 26.8965 75.7018C27.6231 76.153 28.3815 76.5518 29.1658 76.8952C27.6587 72.0916 26.8187 67.1068 26.6687 62.0782C26.6687 58.4621 26.9877 54.8461 28.6554 51.5735C30.8061 47.3427 32.9933 43.139 35.1714 38.9172C35.6271 38.0222 36.101 37.1544 36.5657 36.3046ZM68.9635 76.868C70.2029 76.2895 71.2145 75.8826 72.1532 75.3583C76.3726 72.9807 78.6236 69.4008 78.4869 64.5101C78.4231 62.4941 77.9037 60.4962 77.6576 58.4802C77.0743 53.7793 75.8349 49.3044 72.9278 45.4352C70.5106 42.4018 67.8002 39.6102 64.8352 37.1001C64.0697 36.4131 63.2221 35.7983 62.4202 35.1474L62.1194 35.4458C62.7574 36.3498 63.3679 37.308 64.0423 38.1578C67.1378 42.2396 69.0307 47.0935 69.5103 52.1792C69.884 56.0303 70.1574 59.8905 70.367 63.7507C70.519 65.8402 70.4976 67.9385 70.3032 70.0246C70.0936 72.2485 69.5012 74.3368 68.9635 76.868Z" fill="black"/>
</svg>
