<svg width="258" height="260" viewBox="0 0 258 260" fill="none" xmlns="http://www.w3.org/2000/svg">
<g opacity="0.25">
<path d="M245 124.078C245 192.605 187.06 260 115.587 260C44.114 260 0 192.605 0 124.078C0 55.5517 44.114 0 115.587 0C142.135 0 168.181 20.4053 188.719 33.5518C223.474 55.799 245 81.0048 245 124.078Z" fill="#FA8072"/>
<path d="M258 124.078C258 192.605 200.06 260 128.587 260C57.114 260 13 192.605 13 124.078C13 55.5517 57.114 0 128.587 0C155.135 0 181.181 20.4053 201.719 33.5518C236.474 55.799 258 81.0048 258 124.078Z" fill="#FCB5AD"/>
</g>
</svg>
