<svg width="100" height="100" viewBox="0 0 100 100" fill="none" xmlns="http://www.w3.org/2000/svg">
<path d="M18.5 53.5C18.1 54.3 22 64.5 24 69.5L16 84.5C16 84.5 18.006 86.0037 19.5 86.5C26.4558 88.8105 26.3417 77.1589 32 72.5C45.0615 61.7456 66 62 73 58.5C77.8305 56.0848 81.0851 53.3226 82 48C82.7543 43.6117 77.8479 41.3011 79 37C79.8995 33.6418 83.4184 33.304 84.5 30C86.269 24.5961 85.1196 19.3153 80.5 16C76.6795 13.2582 73.1305 14.1801 68.5 15C62.8223 16.0054 55.5 22 55.5 22L45 15L34.5 22L31 44.5L23 41.5C21.6667 45.1667 18.9 52.7 18.5 53.5Z" fill="white"/>
<path d="M44.2212 49.7558C46.8712 47.9758 49.3912 46.2258 51.9812 44.5958C52.788 44.1037 53.6923 43.7932 54.6312 43.6858C54.9157 43.6692 55.1999 43.7236 55.4583 43.844C55.7166 43.9644 55.941 44.1472 56.1112 44.3758C56.275 45.0002 56.1889 45.6639 55.8712 46.2258C55.4918 46.7964 54.9895 47.2747 54.4012 47.6258C46.5212 52.9458 39.9812 59.7058 33.3312 66.3558C28.4099 71.4734 24.0053 77.0638 20.1812 83.0458C19.4005 84.2734 18.528 85.44 17.5712 86.5358C17.0309 87.0644 16.3241 87.3895 15.5712 87.4558C15.3335 87.4891 15.0912 87.4598 14.8683 87.3708C14.6454 87.2818 14.4496 87.1362 14.3001 86.9484C14.1507 86.7606 14.0528 86.537 14.0162 86.2998C13.9795 86.0626 14.0054 85.82 14.0912 85.5958C14.3174 84.697 14.7296 83.8555 15.3012 83.1258C17.4616 80.3592 19.216 77.2983 20.5112 74.0358C22.3812 69.3158 22.7812 64.6358 19.9812 60.0358C17.9708 57.0151 17.047 53.4007 17.3612 49.7858C17.5494 47.3058 18.3875 44.9191 19.7912 42.8658C21.7212 40.2558 24.1412 39.8658 26.9912 41.3158C27.5712 41.6258 28.1212 41.9658 28.9912 42.4858C29.2112 39.6258 28.8512 36.52 28.9912 34C29.2491 29.3578 32.5194 22.3135 36.8312 17.7058C41.5212 12.4158 50.8312 12.9958 54.0312 19.8958C54.1982 20.1726 54.3853 20.4366 54.5912 20.6858C55.8012 19.5658 56.9212 18.4358 58.1312 17.4058C61.8612 14.2558 65.9512 12.1758 71.0512 13.3158C73.8889 13.9752 76.5609 15.2108 78.9012 16.9458C79.7263 17.5705 80.3958 18.3776 80.8573 19.304C81.3187 20.2303 81.5596 21.2509 81.5612 22.2858C81.7642 24.6767 81.474 27.0837 80.7086 29.3578C79.9431 31.6319 78.7187 33.7244 77.1112 35.5058L75.6312 37.0858C76.2464 37.414 76.8379 37.7849 77.4012 38.1958C78.3638 39.0044 79.0876 40.0602 79.4947 41.2497C79.9017 42.4391 79.9766 43.717 79.7112 44.9458C79.4713 46.9881 78.7964 48.9553 77.7321 50.7148C76.6678 52.4743 75.2387 53.9852 73.5412 55.1458C69.5408 57.944 65.0645 59.9907 60.3312 61.1858C52.1812 63.1858 44.2312 65.7258 36.3312 68.3758C35.2835 68.6366 34.2169 68.8138 33.1412 68.9058C32.8912 67.3958 33.7312 67.0758 34.4712 66.6858C39.8021 63.9694 45.3895 61.7887 51.1512 60.1758C57.7212 58.2658 64.2612 56.3158 70.0912 52.5558C72.7613 50.9546 74.7183 48.393 75.5612 45.3958C75.8389 44.4217 75.9272 43.4033 75.8212 42.3958C75.4912 39.9158 73.4512 38.8758 71.1512 39.8958C70.0612 40.3858 68.9912 40.8958 67.8812 41.3758C66.0712 42.1158 65.5112 42.0858 63.1912 41.1958C63.6071 40.6879 64.0654 40.2162 64.5612 39.7858C66.6912 38.2358 68.8012 36.6458 71.0312 35.2458C75.3812 32.4958 77.2712 28.3558 77.7912 23.4758C77.9479 22.4042 77.7468 21.3109 77.2188 20.3653C76.6909 19.4197 74.5357 19.2247 73.5412 18.7958C69.4012 16.7258 66.7312 16.0458 62.7812 18.7958C58.9972 21.4739 55.8157 24.9144 53.4412 28.8958C49.689 35.3177 46.587 42.098 44.1812 49.1358C44.0912 49.2558 44.1812 49.4358 44.2212 49.7558ZM43.0712 50.5358C42.8098 50.5319 42.5491 50.5085 42.2912 50.4658C40.7612 50.1758 40.4212 49.7158 40.6612 48.2158C40.7269 47.7812 40.841 47.3552 41.0012 46.9458C43.3912 40.3958 45.9412 33.8858 49.6312 27.9458C50.534 26.4917 50.967 24.7948 50.8712 23.0858C50.7712 20.2058 49.4012 18.0858 47.0512 17.2658C44.4712 16.3858 42.4112 17.2658 40.5812 19.1558C35.7812 23.9458 33.7412 29.9458 33.2712 36.6358C32.8912 41.9958 32.2112 47.3358 31.6112 52.6358C31.4909 53.3894 31.2113 54.1088 30.7912 54.7458C30.6711 54.947 30.5054 55.1171 30.3073 55.2422C30.1092 55.3673 29.8844 55.4439 29.6512 55.4658C29.4323 55.3793 29.2359 55.2444 29.0766 55.0713C28.9173 54.8981 28.7992 54.6911 28.7312 54.4658C28.5012 53.4658 28.4512 52.4658 28.3212 51.4658C28.1735 49.6928 27.9231 47.9298 27.5712 46.1858C27.4511 45.7514 27.2389 45.348 26.949 45.0029C26.6591 44.6578 26.2983 44.3791 25.8912 44.1858C24.8161 44.1067 23.7492 44.4233 22.8912 45.0758C22.421 45.5168 21.9986 46.0062 21.6312 46.5358C19.3412 50.1258 20.5112 53.6658 22.0612 57.3458C23.5312 60.8358 25.8112 64.0058 25.6412 67.8658L43.0712 50.5358Z" fill="black"/>
</svg>
