<svg width="100" height="100" viewBox="0 0 100 100" fill="none" xmlns="http://www.w3.org/2000/svg">
<path d="M63 30.5C58.9284 27.0609 49.5 28.5 49.5 28.5L40.5 35V53L28 73L34.5 85.5C34.5 85.5 48.907 95.0974 58.5 93C66.2837 91.2982 71.8739 88.3287 75 81C78.9259 71.7962 68.5694 66.4488 67.5 56.5C66.8948 50.8698 67.5 42 67.5 42C67.5 42 66.6842 33.6119 63 30.5Z" fill="white"/>
<path d="M71.8302 74.7487C70.9151 70.7864 69.1255 67.0741 66.5899 63.8787C65.4594 62.5515 64.6318 60.9981 64.1635 59.3246C63.6953 57.6511 63.5976 55.8972 63.8771 54.1828C64.3678 51.4309 64.803 48.679 65.2196 45.9271C65.9406 42.2608 65.2362 38.4599 63.2475 35.2865C60.2848 30.7733 57.0814 27.8747 51.5448 27.1133C51.1282 27.0491 51.1272 27.2854 50.6092 26.5114C50.0912 25.7374 50.0912 24.7742 50.0912 24.7742C50.0912 24.7742 49.593 23.0274 49.2204 21.9249C49.038 21.3849 48.9495 21.0766 48.7334 20.5489C48.4309 19.8106 48.2717 19.3814 47.8316 18.7143C47.4378 18.1173 47.1205 17.8525 46.6563 17.3074C44.4338 14.6975 42.6752 12.9502 40.6661 10.8863C39.3976 9.57456 38.981 9.68464 37.6848 11.4459C42.3141 15.8214 46.4434 20.5455 46.9433 27.5628C41.8604 28.8562 39.268 32.1493 38.4255 36.6441C37.5292 41.1354 37.4602 45.7503 38.2218 50.2659C38.3964 51.0484 38.3964 51.8593 38.2218 52.6418C37.6721 54.4191 37.0072 56.1595 36.2312 57.852C34.6758 61.2644 32.1205 63.9704 29.5651 66.6489C28.6653 67.5818 27.9742 68.6923 27.5371 69.9078C27.0999 71.1233 26.9266 72.4165 27.0283 73.7029C27.2189 77.1358 28.3697 80.4485 30.3521 83.2704C30.7957 83.9047 31.3183 84.481 31.9075 84.9857C36.6293 88.8384 42.203 90.5721 48.1654 90.9757C50.9085 91.0709 53.6542 90.8865 56.3592 90.4253C64.9141 89.2328 69.5804 85.1141 71.7839 77.8124C72.0554 76.8108 72.0713 75.7579 71.8302 74.7487ZM67.3491 78.2161C66.6467 80.2444 65.4757 82.082 63.9293 83.5823C62.3828 85.0825 60.5039 86.2039 58.4424 86.857C55.1298 88.0159 51.612 88.4869 48.1078 88.2408C44.6036 87.9946 41.188 87.0365 38.0737 85.426C32.9908 82.9035 30.9076 78.3995 30.7595 72.9416C30.7268 71.671 31.1875 70.4365 32.0464 69.4925C33.75 67.5479 35.4165 65.5757 37.0738 63.5851C39.6847 60.4663 41.9715 53.4398 41.9437 53.027C41.8974 52.4399 41.8141 46.2849 41.8049 45.9271C41.74 43.6706 41.6197 41.7901 41.7308 39.7354C41.9027 37.4539 42.7069 35.2637 44.0547 33.406C45.1891 31.8381 46.8462 30.7177 48.7334 30.2427C50.6206 29.7678 52.6165 29.9687 54.3686 30.81C59.5997 33.5619 61.7754 38.0475 61.544 43.7531C61.544 45.1382 61.0255 46.505 60.8403 47.881C60.47 50.6329 60.0163 53.3848 59.9145 56.1367C59.7293 59.6132 61.3403 62.5578 63.4142 65.2179C65.2121 67.5679 66.5986 70.2005 67.5157 73.0058C68.1056 74.7042 68.0463 76.558 67.3491 78.2161Z" fill="black"/>
</svg>
