<svg width="265" height="263" viewBox="0 0 265 263" fill="none" xmlns="http://www.w3.org/2000/svg">
<path d="M261.179 133.634C262.432 149.791 256.822 166.021 249.308 181.743C235.697 211.196 213.908 234.847 187.215 249.142C166.187 259.956 142.453 262.351 119.959 255.93C82.4462 246.399 47.7232 226.136 19.1781 197.119C12.2808 190.133 12.2769 180.137 8.76906 170.493C5.26122 160.85 2.78402 148.779 3.36757 138.408C6.11695 107.536 13.6841 86.9867 29.4845 62.0253C49.7618 30.0845 78.0147 11.7862 112.465 5.00592C148.595 -2.04549 179.903 10.8496 210.741 31.5497C241.579 52.2498 251.691 84.5642 260.503 119.262C260.821 120.499 261.061 128.748 261.179 133.634ZM126.043 5.00592C116.886 6.14218 106.543 6.30008 82.8676 16.43C50.0432 28.0059 30.7005 62.7584 15.5433 93.93C6.36592 112.256 4.88747 126.224 5.36758 146.121C8.58312 168.259 18.5084 189.685 23.8676 197.119C56.0579 234.665 93.4368 250.029 139.043 257.506C155.599 260.091 191.043 249.142 204.543 234.506C223.47 222.445 236.751 202.947 247.543 181.743C255.656 165.314 262.985 137.117 258.043 118.006C254.765 106.41 248.987 87.6094 244.543 76.5059C237.599 57.904 217.468 38.0341 203.043 28.0059C182.97 13.8713 159.543 5.00592 126.043 5.00592Z" fill="black"/>
</svg>
