<svg width="198" height="117" viewBox="0 0 198 117" fill="none" xmlns="http://www.w3.org/2000/svg">
<path fill-rule="evenodd" clip-rule="evenodd" d="M175.074 1.65319C170.833 4.62319 168.111 12.0152 166.375 25.2762C165.829 29.4422 165.46 29.9992 163.063 30.2762C160.801 30.5372 160.365 31.0722 160.365 33.5872C160.365 36.2412 160.74 36.6232 163.615 36.9002C166.029 37.1332 166.865 37.7022 166.865 39.1102C166.865 41.6662 158.781 44.3552 158.031 42.0492C157.77 41.2452 155.879 38.9002 153.828 36.8372C150.799 33.7902 149.375 33.0882 146.233 33.0912C139.171 33.0982 133.131 38.5162 131.927 45.9232C131.552 48.2272 130.781 49.5872 129.848 49.5872C128.756 49.5872 128.283 48.1452 128.055 44.1172C127.698 37.8132 126.63 36.0872 123.088 36.0872C119.789 36.0872 113.927 42.2492 111.625 48.1362L109.885 52.5872L110.125 45.5872C110.342 39.2462 110.176 38.5602 108.358 38.2992C104.487 37.7442 102.632 40.3252 101.978 47.1742C101.448 52.7162 101.093 53.5872 99.3649 53.5872C97.6349 53.5872 97.3249 52.8212 97.0679 47.9202C96.8899 44.5282 96.1919 41.7742 95.3309 41.0582C91.6819 38.0302 84.3029 43.8112 80.9209 52.3482L78.8449 57.5872L79.1049 50.0872C79.3639 42.6222 79.3529 42.5882 76.8689 42.8692C72.4399 43.3692 71.4749 45.4082 70.8999 55.4842C70.4829 62.8082 69.9449 65.3452 68.4599 66.9842C64.0869 71.8112 62.2649 68.2402 63.2699 56.8112C63.9989 48.5232 63.2229 46.5942 59.4479 47.3162C58.0009 47.5932 56.5759 47.4292 56.2819 46.9532C55.0589 44.9742 49.8309 46.1782 46.3409 49.2422C41.7929 53.2352 39.1609 58.3762 38.2859 64.9742C37.7779 68.8022 36.9469 70.6642 35.0969 72.1192C31.9039 74.6312 29.3749 74.7482 30.3829 72.3372C32.0319 68.3972 32.5529 62.7632 31.6579 58.5652C29.8859 50.2572 22.3549 47.4432 16.7879 53.0102C15.1799 54.6182 13.8649 55.3482 13.8649 54.6332C13.8649 52.2642 11.3009 50.9712 8.62288 51.9892C5.27288 53.2622 5.01188 54.4152 6.18888 62.7132C7.14888 69.4832 7.03488 70.3322 3.88988 79.7132C1.27688 87.5062 0.48988 91.6942 0.15688 99.5872C-0.21512 108.388 -0.0201198 109.977 1.78488 112.837C5.60988 118.9 13.3149 116.189 15.8059 107.905C16.5199 105.53 17.2709 99.1532 17.4759 93.7342L17.8479 83.8802L21.4499 82.0442C24.0469 80.7202 25.7039 80.4562 27.3909 81.0972C30.3699 82.2302 35.4749 80.8022 38.4529 78.0042C40.5759 76.0102 40.8679 75.9762 43.0159 77.4802C46.7249 80.0782 50.6609 79.5012 54.2329 75.8372L57.4009 72.5872L59.7089 74.9472C62.4859 77.7872 66.9079 77.3342 70.6409 73.8282C72.8429 71.7592 73.0829 71.7242 73.9889 73.3432C75.0139 75.1752 77.5199 75.5932 79.5929 74.2762C80.2679 73.8482 81.4779 70.0612 82.2809 65.8612C83.7469 58.2022 86.1799 52.0872 87.7629 52.0872C88.2279 52.0872 88.8949 53.8732 89.2439 56.0552C90.0289 60.9642 92.5669 62.5372 98.4099 61.7362C102.583 61.1642 102.666 61.2112 103.28 64.4832C104.142 69.0802 107.036 71.6012 109.77 70.1382C110.909 69.5282 112.03 68.0302 112.261 66.8082C114.652 54.1402 117.055 47.0872 118.979 47.0872C119.466 47.0872 119.865 48.3762 119.865 49.9522C119.865 51.5282 120.837 54.0532 122.024 55.5622C123.905 57.9532 124.695 58.2392 128.14 57.7772C131.745 57.2932 132.428 57.5952 135.826 61.1672C139.241 64.7572 139.998 65.0872 144.81 65.0872C149.455 65.0872 150.461 64.6912 153.471 61.6812C155.345 59.8072 157.154 56.8922 157.492 55.2032C158.157 51.8792 159.256 50.6702 162.365 49.8452C163.465 49.5532 165.13 48.9982 166.065 48.6132C167.357 48.0802 168.104 48.7232 169.179 51.2962C173.875 62.5342 187.362 63.0802 195.137 52.3462C197.375 49.2572 197.957 47.5902 197.472 45.6592C196.565 42.0422 195.196 42.4292 190.656 47.5872C187.485 51.1902 186.045 52.0872 183.435 52.0872C179.361 52.0872 177.281 49.8612 175.947 44.0722C174.038 35.7862 174.226 35.3592 180.115 34.5862C186.755 33.7142 190.091 31.6862 189.676 28.7742C189.401 26.8402 188.858 26.6272 184.972 26.9372L180.578 27.2872L182.63 23.9372C190.52 11.0552 184.98 -5.28481 175.074 1.65319ZM179.694 11.6642C180.091 16.3962 178.574 21.6972 175.852 25.0872L173.845 27.5872L174.443 20.5872C175.17 12.0752 176.658 6.85319 178.21 7.36319C178.845 7.57119 179.513 9.50719 179.694 11.6642ZM145.865 43.0692C145.865 44.0952 146.99 46.2712 148.365 47.9052C151.344 51.4452 151.479 53.1072 149.034 56.1272C144.037 62.2982 136.983 51.4302 141.015 43.7712C143.123 39.7672 145.865 39.3702 145.865 43.0692ZM54.8099 60.6122C54.1819 70.0692 52.3679 73.5172 49.0959 71.4692C45.5889 69.2732 46.3809 60.0042 50.4939 55.1162C54.7039 50.1122 55.4449 51.0552 54.8099 60.6122ZM22.8299 59.0212C25.1439 63.3462 23.2369 71.7212 19.0979 75.4062C17.0969 77.1872 17.0429 77.1662 16.4979 74.4062C14.5389 64.4902 14.6339 62.6292 17.2379 59.8182C20.2359 56.5842 21.4339 56.4132 22.8299 59.0212ZM56.8649 85.5272C56.8649 88.9142 57.2509 90.0872 58.3649 90.0872C59.1899 90.0872 59.8649 89.7092 59.8649 89.2482C59.8649 88.7862 61.0209 87.8812 62.4329 87.2382C64.2759 86.3982 64.9119 85.4342 64.6829 83.8272C64.4279 82.0312 63.6219 81.5252 60.6149 81.2772L56.8649 80.9662V85.5272ZM70.8649 85.5872C70.8649 88.0622 71.3149 90.0872 71.8649 90.0872C72.4149 90.0872 72.8649 88.0622 72.8649 85.5872C72.8649 83.1122 72.4149 81.0872 71.8649 81.0872C71.3149 81.0872 70.8649 83.1122 70.8649 85.5872ZM77.8649 82.0872C77.8649 82.6372 78.7649 83.0872 79.8649 83.0872C80.9649 83.0872 81.8649 83.4672 81.8649 83.9322C81.8649 84.3972 80.9649 85.5922 79.8649 86.5872C76.9189 89.2532 77.3959 90.0872 81.8649 90.0872C84.0649 90.0872 85.8649 89.6372 85.8649 89.0872C85.8649 88.5372 84.9649 88.0872 83.8649 88.0872C82.7649 88.0872 81.8649 87.7072 81.8649 87.2422C81.8649 86.7772 82.7649 85.5822 83.8649 84.5872C86.8109 81.9212 86.3339 81.0872 81.8649 81.0872C79.6649 81.0872 77.8649 81.5372 77.8649 82.0872ZM90.8649 82.0872C90.8649 82.6372 91.8429 83.0872 93.0389 83.0872H95.2139L93.1879 85.3372C89.3809 89.5662 89.4479 90.0872 93.8059 90.0872C96.0379 90.0872 97.8649 89.6372 97.8649 89.0872C97.8649 88.5372 96.9339 88.0872 95.7969 88.0872H93.7289L95.7969 85.1832C98.5389 81.3322 98.4529 81.0872 94.3649 81.0872C92.4399 81.0872 90.8649 81.5372 90.8649 82.0872ZM104.36 85.0972C103.366 87.3032 102.909 89.4402 103.345 89.8472C103.782 90.2542 104.34 90.0252 104.585 89.3372C104.831 88.6502 106.082 88.0872 107.365 88.0872C108.648 88.0872 109.899 88.6502 110.145 89.3372C110.39 90.0252 110.873 90.3292 111.217 90.0142C112.186 89.1292 108.716 81.0872 107.365 81.0872C106.707 81.0872 105.355 82.8922 104.36 85.0972ZM116.865 85.5872C116.865 89.8112 118.141 91.6262 119.151 88.8372C119.513 87.8372 120.027 87.8372 121.721 88.8372C124.511 90.4842 125.387 90.4212 123.939 88.6762C123.138 87.7112 123.1 87.0602 123.816 86.6172C125.417 85.6282 125.065 82.3782 123.283 81.6942C122.413 81.3602 120.613 81.0872 119.283 81.0872C117.084 81.0872 116.865 81.4942 116.865 85.5872ZM129.865 85.5872C129.865 88.9202 130.254 90.0872 131.365 90.0872C132.476 90.0872 132.865 88.9202 132.865 85.5872C132.865 82.2542 132.476 81.0872 131.365 81.0872C130.254 81.0872 129.865 82.2542 129.865 85.5872ZM139.077 85.5872C137.295 89.2562 137.166 90.0872 138.378 90.0872C139.196 90.0872 139.865 89.6372 139.865 89.0872C139.865 87.6332 144.617 87.8582 145.145 89.3372C145.39 90.0252 145.873 90.3292 146.217 90.0142C147.165 89.1482 143.73 81.0872 142.413 81.0872C141.781 81.0872 140.28 83.1122 139.077 85.5872ZM9.79188 98.0872C9.83488 106.713 8.98688 109.898 6.97688 108.656C5.48688 107.735 5.54588 94.9772 7.07588 87.5042L8.28688 81.5872L9.01788 85.5872C9.42088 87.7872 9.76888 93.4122 9.79188 98.0872ZM62.8649 84.5872C62.8649 85.4122 62.1899 86.0872 61.3649 86.0872C60.5399 86.0872 59.8649 85.4122 59.8649 84.5872C59.8649 83.7622 60.5399 83.0872 61.3649 83.0872C62.1899 83.0872 62.8649 83.7622 62.8649 84.5872ZM122.615 84.3372C121.985 86.2292 118.865 86.4982 118.865 84.6602C118.865 83.7332 119.72 83.0872 120.948 83.0872C122.17 83.0872 122.86 83.6042 122.615 84.3372ZM107.865 85.6462C107.865 86.5032 107.408 86.9222 106.849 86.5772C106.29 86.2312 106.091 85.5302 106.408 85.0182C107.265 83.6312 107.865 83.8892 107.865 85.6462ZM142.469 86.8162C141.453 87.8332 140.614 86.3022 141.448 84.9532C142.078 83.9332 142.314 83.9332 142.652 84.9492C142.884 85.6442 142.801 86.4842 142.469 86.8162Z" fill="black"/>
</svg>
